<svg version="1.1" xmlns="http://www.w3.org/2000/svg" viewBox="0 0 641.6898990595263 363.634479043679" width="1925.0696971785787" height="1090.903437131037">
  <!-- svg-source:excalidraw -->
  
  <defs>
    <style class="style-fonts">
      @font-face {
        font-family: "Virgil";
        src: url("https://excalidraw.com/Virgil.woff2");
      }
      @font-face {
        font-family: "Cascadia";
        src: url("https://excalidraw.com/Cascadia.woff2");
      }
    </style>
  </defs>
  <rect x="0" y="0" width="641.6898990595263" height="363.634479043679" fill="#ffffff"></rect><g stroke-linecap="round" transform="translate(10 10) rotate(0 310.84494952976314 171.8172395218395)"><path d="M0 0 L621.69 0 L621.69 343.63 L0 343.63" stroke="none" stroke-width="0" fill="#ffffff"></path><path d="M0 0 C194.9 0, 389.79 0, 621.69 0 M0 0 C189.57 0, 379.14 0, 621.69 0 M621.69 0 C621.69 112.48, 621.69 224.96, 621.69 343.63 M621.69 0 C621.69 101.02, 621.69 202.04, 621.69 343.63 M621.69 343.63 C434.32 343.63, 246.95 343.63, 0 343.63 M621.69 343.63 C410.93 343.63, 200.18 343.63, 0 343.63 M0 343.63 C0 260.28, 0 176.92, 0 0 M0 343.63 C0 258.2, 0 172.76, 0 0" stroke="#000000" stroke-width="1" fill="none"></path></g><g stroke-linecap="round" transform="translate(26.577694909493687 85.61557597251124) rotate(0 31.589441702134422 10.181722163173504)"><path d="M5.09 0 L60.32 0.32 L62.86 2.86 L62.86 17.5 L61.91 19.09 L58.09 20.36 L2.86 20.05 L0.32 17.5 L0 5.09 L1.27 1.27 L5.09 0" stroke="none" stroke-width="0" fill="black"></path><path d="M5.09 0 M5.09 0 C24.64 0, 44.19 0, 58.09 0 M5.09 0 C25.63 0, 46.17 0, 58.09 0 M58.09 0 C61.48 0, 63.18 1.7, 63.18 5.09 M58.09 0 C61.48 0, 63.18 1.7, 63.18 5.09 M63.18 5.09 C63.18 8.09, 63.18 11.08, 63.18 15.27 M63.18 5.09 C63.18 8.38, 63.18 11.68, 63.18 15.27 M63.18 15.27 C63.18 18.67, 61.48 20.36, 58.09 20.36 M63.18 15.27 C63.18 18.67, 61.48 20.36, 58.09 20.36 M58.09 20.36 C41.18 20.36, 24.26 20.36, 5.09 20.36 M58.09 20.36 C38.69 20.36, 19.3 20.36, 5.09 20.36 M5.09 20.36 C1.7 20.36, 0 18.67, 0 15.27 M5.09 20.36 C1.7 20.36, 0 18.67, 0 15.27 M0 15.27 C0 12.39, 0 9.5, 0 5.09 M0 15.27 C0 12.92, 0 10.56, 0 5.09 M0 5.09 C0 1.7, 1.7 0, 5.09 0 M0 5.09 C0 1.7, 1.7 0, 5.09 0" stroke="#000000" stroke-width="2" fill="none"></path></g><g transform="translate(33.83799164317304 88.53168539084254) rotate(0 24.27800294934866 6.52705675726952)"><text x="0" y="0" font-family="Helvetica, Segoe UI Emoji" font-size="11.351403056120901px" fill="#ffffff" text-anchor="start" style="white-space: pre;" direction="ltr" dominant-baseline="text-before-edge">Pick Files</text></g><g stroke-linecap="round" transform="translate(27.563543710928855 123.77770706106583) rotate(0 196.73733718871722 65.57914371513283)"><path d="M0 0 C119.62 0, 239.23 0, 393.47 0 M0 0 C80.22 0, 160.44 0, 393.47 0 M393.47 0 C393.47 48.16, 393.47 96.32, 393.47 131.16 M393.47 0 C393.47 50.88, 393.47 101.75, 393.47 131.16 M393.47 131.16 C253.2 131.16, 112.93 131.16, 0 131.16 M393.47 131.16 C287.38 131.16, 181.29 131.16, 0 131.16 M0 131.16 C0 100.09, 0 69.01, 0 0 M0 131.16 C0 84.15, 0 37.15, 0 0" stroke="#000000" stroke-width="1" fill="none"></path></g><g stroke-linecap="round" transform="translate(327.94793285875255 262.29230538906927) rotate(0 46.979901644576145 11.939110962988536)"><path d="M5.97 0 L90.6 0.37 L92.47 1.49 L93.59 3.36 L93.59 20.52 L92.47 22.39 L87.99 23.88 L3.36 23.51 L1.49 22.39 L0.37 20.52 L0 5.97 L1.49 1.49 L5.97 0" stroke="none" stroke-width="0" fill="#868e96"></path><path d="M5.97 0 M5.97 0 C37.89 0, 69.81 0, 87.99 0 M5.97 0 C28.96 0, 51.96 0, 87.99 0 M87.99 0 C91.97 0, 93.96 1.99, 93.96 5.97 M87.99 0 C91.97 0, 93.96 1.99, 93.96 5.97 M93.96 5.97 C93.96 8.82, 93.96 11.66, 93.96 17.91 M93.96 5.97 C93.96 10.25, 93.96 14.53, 93.96 17.91 M93.96 17.91 C93.96 21.89, 91.97 23.88, 87.99 23.88 M93.96 17.91 C93.96 21.89, 91.97 23.88, 87.99 23.88 M87.99 23.88 C63.82 23.88, 39.65 23.88, 5.97 23.88 M87.99 23.88 C64.01 23.88, 40.03 23.88, 5.97 23.88 M5.97 23.88 C1.99 23.88, 0 21.89, 0 17.91 M5.97 23.88 C1.99 23.88, 0 21.89, 0 17.91 M0 17.91 C0 14.76, 0 11.6, 0 5.97 M0 17.91 C0 15.1, 0 12.29, 0 5.97 M0 5.97 C0 1.99, 1.99 0, 5.97 0 M0 5.97 C0 1.99, 1.99 0, 5.97 0" stroke="#000000" stroke-width="1" fill="none"></path></g><g transform="translate(349.90509012941686 268.28076495136236) rotate(0 33.2255859375 6.190082445211829)"><text x="0" y="0" font-family="Cascadia, Segoe UI Emoji" font-size="10.316804075353065px" fill="#000000" text-anchor="start" style="white-space: pre;" direction="ltr" dominant-baseline="text-before-edge">Choose File</text></g><g stroke-linecap="round" transform="translate(36.71700520247322 130.24773905989434) rotate(0 49.15049506681396 9.887245474206964)"><path d="M4.94 0 L95.52 0.31 L97.99 2.78 L97.99 16.99 L97.07 18.54 L93.36 19.77 L2.78 19.47 L0.31 16.99 L0 4.94 L1.24 1.24 L4.94 0" stroke="none" stroke-width="0" fill="#ced4da"></path><path d="M4.94 0 M4.94 0 C35.95 0, 66.97 0, 93.36 0 M4.94 0 C36.04 0, 67.14 0, 93.36 0 M93.36 0 C96.65 0, 98.3 1.65, 98.3 4.94 M93.36 0 C96.65 0, 98.3 1.65, 98.3 4.94 M98.3 4.94 C98.3 7.91, 98.3 10.87, 98.3 14.83 M98.3 4.94 C98.3 7.98, 98.3 11.01, 98.3 14.83 M98.3 14.83 C98.3 18.13, 96.65 19.77, 93.36 19.77 M98.3 14.83 C98.3 18.13, 96.65 19.77, 93.36 19.77 M93.36 19.77 C74.88 19.77, 56.41 19.77, 4.94 19.77 M93.36 19.77 C75.55 19.77, 57.75 19.77, 4.94 19.77 M4.94 19.77 C1.65 19.77, 0 18.13, 0 14.83 M4.94 19.77 C1.65 19.77, 0 18.13, 0 14.83 M0 14.83 C0 11.28, 0 7.73, 0 4.94 M0 14.83 C0 12.06, 0 9.28, 0 4.94 M0 4.94 C0 1.65, 1.65 0, 4.94 0 M0 4.94 C0 1.65, 1.65 0, 4.94 0" stroke="#000000" stroke-width="1" fill="none"></path></g><g transform="translate(41.23687554685131 134.20263207697633) rotate(0 30.263671875 6.203041649573038)"><text x="0" y="0" font-family="Cascadia, Segoe UI Emoji" font-size="10.338402749288372px" fill="#000000" text-anchor="start" style="white-space: pre;" direction="ltr" dominant-baseline="text-before-edge">Acidif.csv</text></g><g stroke-linecap="round" transform="translate(118.56796068975126 133.1824749418356) rotate(0 6.968364434606599 6.968364434606599)"><path d="M13.94 6.97 C13.94 7.37, 13.9 7.78, 13.83 8.18 C13.76 8.58, 13.65 8.97, 13.52 9.35 C13.38 9.73, 13.2 10.1, 13 10.45 C12.8 10.8, 12.57 11.14, 12.31 11.45 C12.05 11.76, 11.76 12.05, 11.45 12.31 C11.14 12.57, 10.8 12.8, 10.45 13 C10.1 13.2, 9.73 13.38, 9.35 13.52 C8.97 13.65, 8.58 13.76, 8.18 13.83 C7.78 13.9, 7.37 13.94, 6.97 13.94 C6.57 13.94, 6.16 13.9, 5.76 13.83 C5.36 13.76, 4.96 13.65, 4.59 13.52 C4.21 13.38, 3.83 13.2, 3.48 13 C3.13 12.8, 2.8 12.57, 2.49 12.31 C2.18 12.05, 1.89 11.76, 1.63 11.45 C1.37 11.14, 1.14 10.8, 0.93 10.45 C0.73 10.1, 0.56 9.73, 0.42 9.35 C0.28 8.97, 0.18 8.58, 0.11 8.18 C0.04 7.78, 0 7.37, 0 6.97 C0 6.57, 0.04 6.16, 0.11 5.76 C0.18 5.36, 0.28 4.96, 0.42 4.59 C0.56 4.21, 0.73 3.83, 0.93 3.48 C1.14 3.13, 1.37 2.8, 1.63 2.49 C1.89 2.18, 2.18 1.89, 2.49 1.63 C2.8 1.37, 3.13 1.14, 3.48 0.93 C3.83 0.73, 4.21 0.56, 4.59 0.42 C4.96 0.28, 5.36 0.18, 5.76 0.11 C6.16 0.04, 6.57 0, 6.97 0 C7.37 0, 7.78 0.04, 8.18 0.11 C8.58 0.18, 8.97 0.28, 9.35 0.42 C9.73 0.56, 10.1 0.73, 10.45 0.93 C10.8 1.14, 11.14 1.37, 11.45 1.63 C11.76 1.89, 12.05 2.18, 12.31 2.49 C12.57 2.8, 12.8 3.13, 13 3.48 C13.2 3.83, 13.38 4.21, 13.52 4.59 C13.65 4.96, 13.76 5.36, 13.83 5.76 C13.9 6.16, 13.92 6.77, 13.94 6.97 C13.95 7.17, 13.95 6.77, 13.94 6.97" stroke="none" stroke-width="0" fill="#f2f2f2"></path><path d="M13.94 6.97 C13.94 7.37, 13.9 7.78, 13.83 8.18 C13.76 8.58, 13.65 8.97, 13.52 9.35 C13.38 9.73, 13.2 10.1, 13 10.45 C12.8 10.8, 12.57 11.14, 12.31 11.45 C12.05 11.76, 11.76 12.05, 11.45 12.31 C11.14 12.57, 10.8 12.8, 10.45 13 C10.1 13.2, 9.73 13.38, 9.35 13.52 C8.97 13.65, 8.58 13.76, 8.18 13.83 C7.78 13.9, 7.37 13.94, 6.97 13.94 C6.57 13.94, 6.16 13.9, 5.76 13.83 C5.36 13.76, 4.96 13.65, 4.59 13.52 C4.21 13.38, 3.83 13.2, 3.48 13 C3.13 12.8, 2.8 12.57, 2.49 12.31 C2.18 12.05, 1.89 11.76, 1.63 11.45 C1.37 11.14, 1.14 10.8, 0.93 10.45 C0.73 10.1, 0.56 9.73, 0.42 9.35 C0.28 8.97, 0.18 8.58, 0.11 8.18 C0.04 7.78, 0 7.37, 0 6.97 C0 6.57, 0.04 6.16, 0.11 5.76 C0.18 5.36, 0.28 4.96, 0.42 4.59 C0.56 4.21, 0.73 3.83, 0.93 3.48 C1.14 3.13, 1.37 2.8, 1.63 2.49 C1.89 2.18, 2.18 1.89, 2.49 1.63 C2.8 1.37, 3.13 1.14, 3.48 0.93 C3.83 0.73, 4.21 0.56, 4.59 0.42 C4.96 0.28, 5.36 0.18, 5.76 0.11 C6.16 0.04, 6.57 0, 6.97 0 C7.37 0, 7.78 0.04, 8.18 0.11 C8.58 0.18, 8.97 0.28, 9.35 0.42 C9.73 0.56, 10.1 0.73, 10.45 0.93 C10.8 1.14, 11.14 1.37, 11.45 1.63 C11.76 1.89, 12.05 2.18, 12.31 2.49 C12.57 2.8, 12.8 3.13, 13 3.48 C13.2 3.83, 13.38 4.21, 13.52 4.59 C13.65 4.96, 13.76 5.36, 13.83 5.76 C13.9 6.16, 13.92 6.77, 13.94 6.97 C13.95 7.17, 13.95 6.77, 13.94 6.97" stroke="#000000" stroke-width="1" fill="none"></path></g><g stroke-linecap="round"><g transform="translate(122.76848323264932 136.611992860153) rotate(0 2.973230352835799 3.4944161757057373)"><path d="M0 0 C0.99 1.16, 4.96 5.82, 5.95 6.99 M0 0 C0.99 1.16, 4.96 5.82, 5.95 6.99" stroke="#000000" stroke-width="1" fill="none"></path></g></g><mask></mask><g stroke-linecap="round"><g transform="translate(128.05621426595752 136.74574623653916) rotate(0 -2.490368874348178 3.410571583256285)"><path d="M0 0 C-0.83 1.14, -4.15 5.68, -4.98 6.82 M0 0 C-0.83 1.14, -4.15 5.68, -4.98 6.82" stroke="#000000" stroke-width="1" fill="none"></path></g></g><mask></mask><g stroke-linecap="round" transform="translate(36.31545377910908 155.02404127973307) rotate(0 63.63509604149368 9.887245474206964)"><path d="M4.94 0 L122.33 0 L124.49 0.31 L126.96 2.78 L127.27 14.83 L126.03 18.54 L122.33 19.77 L4.94 19.77 L1.24 18.54 L0 14.83 L0.31 2.78 L2.78 0.31 L4.94 0" stroke="none" stroke-width="0" fill="#ced4da"></path><path d="M4.94 0 M4.94 0 C30.61 0, 56.27 0, 122.33 0 M4.94 0 C39.59 0, 74.24 0, 122.33 0 M122.33 0 C125.62 0, 127.27 1.65, 127.27 4.94 M122.33 0 C125.62 0, 127.27 1.65, 127.27 4.94 M127.27 4.94 C127.27 7.49, 127.27 10.03, 127.27 14.83 M127.27 4.94 C127.27 8.47, 127.27 12.01, 127.27 14.83 M127.27 14.83 C127.27 18.13, 125.62 19.77, 122.33 19.77 M127.27 14.83 C127.27 18.13, 125.62 19.77, 122.33 19.77 M122.33 19.77 C78.14 19.77, 33.95 19.77, 4.94 19.77 M122.33 19.77 C85.63 19.77, 48.94 19.77, 4.94 19.77 M4.94 19.77 C1.65 19.77, 0 18.13, 0 14.83 M4.94 19.77 C1.65 19.77, 0 18.13, 0 14.83 M0 14.83 C0 10.97, 0 7.1, 0 4.94 M0 14.83 C0 12.37, 0 9.91, 0 4.94 M0 4.94 C0 1.65, 1.65 0, 4.94 0 M0 4.94 C0 1.65, 1.65 0, 4.94 0" stroke="#000000" stroke-width="1" fill="none"></path></g><g transform="translate(40.83532412348728 157.8473203130792) rotate(0 45.3955078125 6.203041649573038)"><text x="0" y="0" font-family="Cascadia, Segoe UI Emoji" font-size="10.338402749288372px" fill="#000000" text-anchor="start" style="white-space: pre;" direction="ltr" dominant-baseline="text-before-edge">sales_april.csv</text></g><g stroke-linecap="round" transform="translate(146.90930292328466 157.95876680147057) rotate(0 6.968364434606599 6.968364434606599)"><path d="M13.94 6.97 C13.94 7.37, 13.9 7.78, 13.83 8.18 C13.76 8.58, 13.65 8.97, 13.52 9.35 C13.38 9.73, 13.2 10.1, 13 10.45 C12.8 10.8, 12.57 11.14, 12.31 11.45 C12.05 11.76, 11.76 12.05, 11.45 12.31 C11.14 12.57, 10.8 12.8, 10.45 13 C10.1 13.2, 9.73 13.38, 9.35 13.52 C8.97 13.65, 8.58 13.76, 8.18 13.83 C7.78 13.9, 7.37 13.94, 6.97 13.94 C6.57 13.94, 6.16 13.9, 5.76 13.83 C5.36 13.76, 4.96 13.65, 4.59 13.52 C4.21 13.38, 3.83 13.2, 3.48 13 C3.13 12.8, 2.8 12.57, 2.49 12.31 C2.18 12.05, 1.89 11.76, 1.63 11.45 C1.37 11.14, 1.14 10.8, 0.93 10.45 C0.73 10.1, 0.56 9.73, 0.42 9.35 C0.28 8.97, 0.18 8.58, 0.11 8.18 C0.04 7.78, 0 7.37, 0 6.97 C0 6.57, 0.04 6.16, 0.11 5.76 C0.18 5.36, 0.28 4.96, 0.42 4.59 C0.56 4.21, 0.73 3.83, 0.93 3.48 C1.14 3.13, 1.37 2.8, 1.63 2.49 C1.89 2.18, 2.18 1.89, 2.49 1.63 C2.8 1.37, 3.13 1.14, 3.48 0.93 C3.83 0.73, 4.21 0.56, 4.59 0.42 C4.96 0.28, 5.36 0.18, 5.76 0.11 C6.16 0.04, 6.57 0, 6.97 0 C7.37 0, 7.78 0.04, 8.18 0.11 C8.58 0.18, 8.97 0.28, 9.35 0.42 C9.73 0.56, 10.1 0.73, 10.45 0.93 C10.8 1.14, 11.14 1.37, 11.45 1.63 C11.76 1.89, 12.05 2.18, 12.31 2.49 C12.57 2.8, 12.8 3.13, 13 3.48 C13.2 3.83, 13.38 4.21, 13.52 4.59 C13.65 4.96, 13.76 5.36, 13.83 5.76 C13.9 6.16, 13.92 6.77, 13.94 6.97 C13.95 7.17, 13.95 6.77, 13.94 6.97" stroke="none" stroke-width="0" fill="#f2f2f2"></path><path d="M13.94 6.97 C13.94 7.37, 13.9 7.78, 13.83 8.18 C13.76 8.58, 13.65 8.97, 13.52 9.35 C13.38 9.73, 13.2 10.1, 13 10.45 C12.8 10.8, 12.57 11.14, 12.31 11.45 C12.05 11.76, 11.76 12.05, 11.45 12.31 C11.14 12.57, 10.8 12.8, 10.45 13 C10.1 13.2, 9.73 13.38, 9.35 13.52 C8.97 13.65, 8.58 13.76, 8.18 13.83 C7.78 13.9, 7.37 13.94, 6.97 13.94 C6.57 13.94, 6.16 13.9, 5.76 13.83 C5.36 13.76, 4.96 13.65, 4.59 13.52 C4.21 13.38, 3.83 13.2, 3.48 13 C3.13 12.8, 2.8 12.57, 2.49 12.31 C2.18 12.05, 1.89 11.76, 1.63 11.45 C1.37 11.14, 1.14 10.8, 0.93 10.45 C0.73 10.1, 0.56 9.73, 0.42 9.35 C0.28 8.97, 0.18 8.58, 0.11 8.18 C0.04 7.78, 0 7.37, 0 6.97 C0 6.57, 0.04 6.16, 0.11 5.76 C0.18 5.36, 0.28 4.96, 0.42 4.59 C0.56 4.21, 0.73 3.83, 0.93 3.48 C1.14 3.13, 1.37 2.8, 1.63 2.49 C1.89 2.18, 2.18 1.89, 2.49 1.63 C2.8 1.37, 3.13 1.14, 3.48 0.93 C3.83 0.73, 4.21 0.56, 4.59 0.42 C4.96 0.28, 5.36 0.18, 5.76 0.11 C6.16 0.04, 6.57 0, 6.97 0 C7.37 0, 7.78 0.04, 8.18 0.11 C8.58 0.18, 8.97 0.28, 9.35 0.42 C9.73 0.56, 10.1 0.73, 10.45 0.93 C10.8 1.14, 11.14 1.37, 11.45 1.63 C11.76 1.89, 12.05 2.18, 12.31 2.49 C12.57 2.8, 12.8 3.13, 13 3.48 C13.2 3.83, 13.38 4.21, 13.52 4.59 C13.65 4.96, 13.76 5.36, 13.83 5.76 C13.9 6.16, 13.92 6.77, 13.94 6.97 C13.95 7.17, 13.95 6.77, 13.94 6.97" stroke="#000000" stroke-width="1" fill="none"></path></g><g stroke-linecap="round"><g transform="translate(151.1098254661827 161.38828471978798) rotate(0 2.973230352835799 3.4944161757057373)"><path d="M0 0 C0.99 1.16, 4.96 5.82, 5.95 6.99 M0 0 C0.99 1.16, 4.96 5.82, 5.95 6.99" stroke="#000000" stroke-width="1" fill="none"></path></g></g><mask></mask><g stroke-linecap="round"><g transform="translate(156.39755649949103 161.52203809617424) rotate(0 -2.490368874348178 3.410571583256285)"><path d="M0 0 C-0.83 1.14, -4.15 5.68, -4.98 6.82 M0 0 C-0.83 1.14, -4.15 5.68, -4.98 6.82" stroke="#000000" stroke-width="1" fill="none"></path></g></g><mask></mask><g stroke-linecap="round" transform="translate(115.64486644737946 85.13730814389135) rotate(0 42.388614030313306 11.449939771646086)"><path d="M5.72 0 M5.72 0 C28.03 0, 50.34 0, 79.05 0 M5.72 0 C26.09 0, 46.46 0, 79.05 0 M79.05 0 C82.87 0, 84.78 1.91, 84.78 5.72 M79.05 0 C82.87 0, 84.78 1.91, 84.78 5.72 M84.78 5.72 C84.78 9.13, 84.78 12.54, 84.78 17.17 M84.78 5.72 C84.78 9.75, 84.78 13.77, 84.78 17.17 M84.78 17.17 C84.78 20.99, 82.87 22.9, 79.05 22.9 M84.78 17.17 C84.78 20.99, 82.87 22.9, 79.05 22.9 M79.05 22.9 C62.32 22.9, 45.58 22.9, 5.72 22.9 M79.05 22.9 C53.02 22.9, 26.98 22.9, 5.72 22.9 M5.72 22.9 C1.91 22.9, 0 20.99, 0 17.17 M5.72 22.9 C1.91 22.9, 0 20.99, 0 17.17 M0 17.17 C0 13.61, 0 10.05, 0 5.72 M0 17.17 C0 13.13, 0 9.09, 0 5.72 M0 5.72 C0 1.91, 1.91 0, 5.72 0 M0 5.72 C0 1.91, 1.91 0, 5.72 0" stroke="#000000" stroke-width="2" fill="none"></path></g><g transform="translate(128.322948005307 88.52304694270595) rotate(0 29.358028752340374 7.230851801263725)"><text x="0" y="0" font-family="Helvetica, Segoe UI Emoji" font-size="12.575394436980398px" fill="#000000" text-anchor="start" style="white-space: pre;" direction="ltr" dominant-baseline="text-before-edge">Edit config</text></g><g stroke-opacity="0.5" fill-opacity="0.5" stroke-linecap="round" transform="translate(514.0288412816917 18.686274229806827) rotate(0 50.277322616940154 16.176281214222627)"><path d="M8.09 0 M8.09 0 C26.35 0, 44.61 0, 92.47 0 M8.09 0 C32.36 0, 56.62 0, 92.47 0 M92.47 0 C97.86 0, 100.55 2.7, 100.55 8.09 M92.47 0 C97.86 0, 100.55 2.7, 100.55 8.09 M100.55 8.09 C100.55 12.45, 100.55 16.82, 100.55 24.26 M100.55 8.09 C100.55 11.41, 100.55 14.73, 100.55 24.26 M100.55 24.26 C100.55 29.66, 97.86 32.35, 92.47 32.35 M100.55 24.26 C100.55 29.66, 97.86 32.35, 92.47 32.35 M92.47 32.35 C59.1 32.35, 25.73 32.35, 8.09 32.35 M92.47 32.35 C75.23 32.35, 57.99 32.35, 8.09 32.35 M8.09 32.35 C2.7 32.35, 0 29.66, 0 24.26 M8.09 32.35 C2.7 32.35, 0 29.66, 0 24.26 M0 24.26 C0 20.37, 0 16.49, 0 8.09 M0 24.26 C0 17.89, 0 11.52, 0 8.09 M0 8.09 C0 2.7, 2.7 0, 8.09 0 M0 8.09 C0 2.7, 2.7 0, 8.09 0" stroke="#000000" stroke-width="1" fill="none"></path></g><g stroke-linecap="round" transform="translate(554.2505458783721 24.93272729271723) rotate(0 10.929830993438834 9.99299466754411)"><path d="M21.86 9.99 C21.86 10.57, 21.8 11.16, 21.69 11.73 C21.58 12.3, 21.42 12.87, 21.2 13.41 C20.98 13.95, 20.71 14.49, 20.4 14.99 C20.08 15.49, 19.71 15.97, 19.3 16.42 C18.9 16.86, 18.44 17.28, 17.96 17.65 C17.47 18.02, 16.94 18.36, 16.39 18.65 C15.85 18.94, 15.26 19.19, 14.67 19.38 C14.07 19.58, 13.45 19.73, 12.83 19.83 C12.2 19.93, 11.56 19.99, 10.93 19.99 C10.3 19.99, 9.65 19.93, 9.03 19.83 C8.41 19.73, 7.79 19.58, 7.19 19.38 C6.6 19.19, 6.01 18.94, 5.46 18.65 C4.92 18.36, 4.39 18.02, 3.9 17.65 C3.42 17.28, 2.96 16.86, 2.56 16.42 C2.15 15.97, 1.78 15.49, 1.46 14.99 C1.15 14.49, 0.88 13.95, 0.66 13.41 C0.44 12.87, 0.28 12.3, 0.17 11.73 C0.06 11.16, 0 10.57, 0 9.99 C0 9.41, 0.06 8.83, 0.17 8.26 C0.28 7.69, 0.44 7.12, 0.66 6.58 C0.88 6.03, 1.15 5.5, 1.46 5 C1.78 4.5, 2.15 4.01, 2.56 3.57 C2.96 3.13, 3.42 2.71, 3.9 2.34 C4.39 1.97, 4.92 1.63, 5.46 1.34 C6.01 1.05, 6.6 0.8, 7.19 0.6 C7.79 0.4, 8.41 0.25, 9.03 0.15 C9.65 0.05, 10.3 0, 10.93 0 C11.56 0, 12.2 0.05, 12.83 0.15 C13.45 0.25, 14.07 0.4, 14.67 0.6 C15.26 0.8, 15.85 1.05, 16.39 1.34 C16.94 1.63, 17.47 1.97, 17.96 2.34 C18.44 2.71, 18.9 3.13, 19.3 3.57 C19.71 4.01, 20.08 4.5, 20.4 5 C20.71 5.5, 20.98 6.03, 21.2 6.58 C21.42 7.12, 21.58 7.69, 21.69 8.26 C21.8 8.83, 21.83 9.7, 21.86 9.99 C21.89 10.28, 21.89 9.7, 21.86 9.99" stroke="none" stroke-width="0" fill="#ced4da"></path><path d="M21.86 9.99 C21.86 10.57, 21.8 11.16, 21.69 11.73 C21.58 12.3, 21.42 12.87, 21.2 13.41 C20.98 13.95, 20.71 14.49, 20.4 14.99 C20.08 15.49, 19.71 15.97, 19.3 16.42 C18.9 16.86, 18.44 17.28, 17.96 17.65 C17.47 18.02, 16.94 18.36, 16.39 18.65 C15.85 18.94, 15.26 19.19, 14.67 19.38 C14.07 19.58, 13.45 19.73, 12.83 19.83 C12.2 19.93, 11.56 19.99, 10.93 19.99 C10.3 19.99, 9.65 19.93, 9.03 19.83 C8.41 19.73, 7.79 19.58, 7.19 19.38 C6.6 19.19, 6.01 18.94, 5.46 18.65 C4.92 18.36, 4.39 18.02, 3.9 17.65 C3.42 17.28, 2.96 16.86, 2.56 16.42 C2.15 15.97, 1.78 15.49, 1.46 14.99 C1.15 14.49, 0.88 13.95, 0.66 13.41 C0.44 12.87, 0.28 12.3, 0.17 11.73 C0.06 11.16, 0 10.57, 0 9.99 C0 9.41, 0.06 8.83, 0.17 8.26 C0.28 7.69, 0.44 7.12, 0.66 6.58 C0.88 6.03, 1.15 5.5, 1.46 5 C1.78 4.5, 2.15 4.01, 2.56 3.57 C2.96 3.13, 3.42 2.71, 3.9 2.34 C4.39 1.97, 4.92 1.63, 5.46 1.34 C6.01 1.05, 6.6 0.8, 7.19 0.6 C7.79 0.4, 8.41 0.25, 9.03 0.15 C9.65 0.05, 10.3 0, 10.93 0 C11.56 0, 12.2 0.05, 12.83 0.15 C13.45 0.25, 14.07 0.4, 14.67 0.6 C15.26 0.8, 15.85 1.05, 16.39 1.34 C16.94 1.63, 17.47 1.97, 17.96 2.34 C18.44 2.71, 18.9 3.13, 19.3 3.57 C19.71 4.01, 20.08 4.5, 20.4 5 C20.71 5.5, 20.98 6.03, 21.2 6.58 C21.42 7.12, 21.58 7.69, 21.69 8.26 C21.8 8.83, 21.83 9.7, 21.86 9.99 C21.89 10.28, 21.89 9.7, 21.86 9.99" stroke="#000000" stroke-width="2" fill="none"></path></g><g stroke-linecap="round" transform="translate(556.338469847547 25.79857227137552) rotate(0 9.508042787598953 9.508042787598924)"><path d="M14.46 1.22 C16.41 2.08, 18.43 3.96, 19.18 5.75 C19.94 7.53, 19.53 9.94, 18.96 11.91 C18.39 13.88, 17.64 16.21, 15.77 17.54 C13.9 18.88, 9.88 20.05, 7.76 19.92 C5.64 19.79, 4.34 18.52, 3.07 16.78 C1.79 15.04, 0.46 11.57, 0.1 9.48 C-0.27 7.39, -0.46 5.88, 0.89 4.25 C2.24 2.63, 5.68 0.05, 8.2 -0.28 C10.71 -0.61, 14.5 1.69, 15.98 2.26 C17.47 2.83, 17.19 3.1, 17.1 3.13 M10.55 0.36 C12.25 0.25, 14.95 0.81, 16.36 2.15 C17.76 3.5, 18.82 6.49, 18.99 8.44 C19.16 10.38, 18.74 12.01, 17.38 13.81 C16.01 15.62, 12.74 18.31, 10.8 19.26 C8.87 20.21, 7.64 20.67, 5.77 19.5 C3.9 18.34, 0.34 14.16, -0.41 12.27 C-1.16 10.39, 0.65 9.87, 1.25 8.17 C1.84 6.48, 1.81 3.49, 3.16 2.11 C4.5 0.74, 8.34 0.44, 9.33 -0.1 C10.32 -0.63, 9.07 -1.13, 9.11 -1.1" stroke="none" stroke-width="0" fill="white"></path><path d="M11.71 -0.65 C13.78 -0.32, 15.72 2.17, 16.89 3.86 C18.05 5.54, 18.84 7.41, 18.71 9.44 C18.58 11.47, 17.24 14.48, 16.1 16.04 C14.95 17.61, 13.72 18.61, 11.82 18.85 C9.92 19.08, 6.66 18.35, 4.71 17.46 C2.75 16.57, 0.69 15.38, 0.06 13.49 C-0.57 11.6, 0.13 8.06, 0.91 6.13 C1.69 4.2, 2.95 3.02, 4.75 1.93 C6.55 0.84, 10.04 -0.37, 11.7 -0.4 C13.36 -0.43, 14.65 1.59, 14.71 1.75 M8.62 -0.34 C10.65 -0.97, 12.94 -0.7, 14.79 0.23 C16.64 1.16, 18.87 3.03, 19.71 5.23 C20.55 7.43, 20.54 11.48, 19.83 13.43 C19.11 15.38, 17.25 16.08, 15.4 16.92 C13.54 17.76, 10.79 18.93, 8.72 18.46 C6.65 17.99, 4.59 15.61, 2.99 14.08 C1.38 12.54, -0.94 11.15, -0.89 9.26 C-0.83 7.36, 2.02 4.09, 3.31 2.71 C4.6 1.34, 6.24 1.35, 6.87 1.01 C7.49 0.68, 7.02 0.8, 7.07 0.71" stroke="#000000" stroke-width="1" fill="none"></path></g><g stroke-linecap="round" transform="translate(562.6871227491988 29.335531619700873) rotate(0 3.372099233267342 3.372099233267363)"><path d="M3.38 0.26 C3.94 -0.06, 4.34 -0.23, 5 0.06 C5.65 0.35, 7.16 1.16, 7.31 1.99 C7.46 2.83, 6.15 4.29, 5.9 5.08 C5.64 5.87, 6.23 6.56, 5.8 6.72 C5.36 6.88, 4.21 6.13, 3.27 6.04 C2.33 5.94, 0.52 6.63, 0.15 6.16 C-0.22 5.7, 0.81 3.92, 1.02 3.22 C1.23 2.53, 0.95 2.5, 1.42 1.98 C1.9 1.46, 3.36 0.43, 3.87 0.09 C4.39 -0.24, 4.61 -0.26, 4.5 -0.05 M3.86 -0.7 C4.53 -0.76, 5.36 0.28, 5.87 0.73 C6.38 1.17, 7.05 1.11, 6.91 1.98 C6.76 2.86, 5.41 4.96, 5 5.98 C4.6 7, 5.23 8.23, 4.48 8.11 C3.74 7.98, 1.11 5.6, 0.55 5.23 C-0.01 4.86, 1.37 6.31, 1.13 5.9 C0.9 5.5, -0.74 3.73, -0.85 2.81 C-0.97 1.89, -0.13 1.05, 0.43 0.37 C0.99 -0.32, 2.05 -1.11, 2.48 -1.3 C2.91 -1.5, 2.68 -1.04, 3 -0.79" stroke="none" stroke-width="0" fill="black"></path><path d="M3.1 0.51 C3.63 0.51, 4.46 0.13, 4.92 0.53 C5.39 0.92, 5.52 2.17, 5.88 2.86 C6.25 3.55, 7.27 4.15, 7.09 4.69 C6.91 5.23, 5.64 5.64, 4.8 6.09 C3.97 6.53, 2.7 7.49, 2.07 7.35 C1.44 7.2, 1.35 5.81, 1.01 5.22 C0.68 4.63, 0.2 4.66, 0.03 3.81 C-0.14 2.96, -0.68 0.69, -0.02 0.12 C0.63 -0.45, 3.41 0.57, 3.94 0.42 C4.47 0.26, 3.32 -0.73, 3.15 -0.79 M3.94 -1.11 C4.72 -1.24, 6.18 -1.04, 6.88 -0.27 C7.58 0.5, 8.05 2.72, 8.15 3.48 C8.25 4.24, 7.93 3.85, 7.47 4.3 C7 4.76, 6.14 6.08, 5.38 6.21 C4.62 6.33, 3.9 5.28, 2.92 5.05 C1.94 4.82, -0.2 5.31, -0.51 4.81 C-0.82 4.31, 0.96 2.59, 1.08 2.05 C1.19 1.52, -0.05 1.86, 0.2 1.58 C0.45 1.31, 2.18 0.76, 2.57 0.41 C2.96 0.06, 2.5 -0.71, 2.53 -0.51" stroke="#000000" stroke-width="1" fill="none"></path></g><g stroke-linecap="round"><g transform="translate(559.357753120054 40.40153241940459) rotate(0 5.972210066116336 0.4960665377255964)" fill-rule="evenodd"><path d="M0.83 -0.62 L4.9 -4.07 L12.54 -0.05 L8.98 2.77 L5.59 1.81 L1.63 -1.55" stroke="none" stroke-width="0" fill="black" fill-rule="evenodd"></path><path d="M-0.28 0.71 C-0.02 0.49, 0.7 -1.39, 1.94 -2.14 C3.19 -2.89, 5.74 -3.65, 7.21 -3.8 C8.67 -3.95, 9.64 -3.75, 10.71 -3.04 C11.79 -2.32, 13.6 -0.37, 13.67 0.51 C13.74 1.39, 12.11 1.88, 11.13 2.25 C10.15 2.62, 8.66 2.51, 7.78 2.75 C6.91 2.99, 6.8 3.82, 5.88 3.71 C4.95 3.6, 3.07 2.9, 2.22 2.09 C1.37 1.28, 1.32 -0.93, 0.76 -1.13 M1.78 0.04 C2.37 0.11, 3.33 -0.07, 4.16 -0.53 C4.99 -0.98, 5.62 -2.36, 6.75 -2.67 C7.88 -2.98, 9.98 -3.05, 10.94 -2.38 C11.9 -1.72, 12.22 0.7, 12.48 1.3 C12.75 1.89, 13.24 0.59, 12.53 1.16 C11.82 1.73, 9.44 4.33, 8.24 4.73 C7.03 5.14, 5.98 4.26, 5.29 3.59 C4.6 2.92, 5.27 1.08, 4.11 0.72 C2.94 0.37, -0.81 1.82, -1.73 1.48" stroke="#000000" stroke-width="1" fill="none"></path></g></g><mask></mask><g stroke-opacity="0.5" fill-opacity="0.5" stroke-linecap="round" transform="translate(193.7369105918021 21.241530609274832) rotate(0 117.75607968880881 14.199999999999989)"><path d="M7.1 0 M7.1 0 C68.38 0, 129.65 0, 228.41 0 M7.1 0 C57.58 0, 108.07 0, 228.41 0 M228.41 0 C233.15 0, 235.51 2.37, 235.51 7.1 M228.41 0 C233.15 0, 235.51 2.37, 235.51 7.1 M235.51 7.1 C235.51 11.95, 235.51 16.79, 235.51 21.3 M235.51 7.1 C235.51 10.93, 235.51 14.75, 235.51 21.3 M235.51 21.3 C235.51 26.03, 233.15 28.4, 228.41 28.4 M235.51 21.3 C235.51 26.03, 233.15 28.4, 228.41 28.4 M228.41 28.4 C147.35 28.4, 66.28 28.4, 7.1 28.4 M228.41 28.4 C170.59 28.4, 112.76 28.4, 7.1 28.4 M7.1 28.4 C2.37 28.4, 0 26.03, 0 21.3 M7.1 28.4 C2.37 28.4, 0 26.03, 0 21.3 M0 21.3 C0 15.68, 0 10.07, 0 7.1 M0 21.3 C0 15.62, 0 9.95, 0 7.1 M0 7.1 C0 2.37, 2.37 0, 7.1 0 M0 7.1 C0 2.37, 2.37 0, 7.1 0" stroke="#000000" stroke-width="1" fill="none"></path></g><g stroke-linecap="round"><g stroke-opacity="0.5" fill-opacity="0.5" transform="translate(312.8693291654626 24.779982317602958) rotate(0 0 10.27794832715199)"><path d="M0 0 C0 3.43, 0 17.13, 0 20.56 M0 0 C0 3.43, 0 17.13, 0 20.56" stroke="#000000" stroke-width="1" fill="none"></path></g></g><mask></mask><g transform="translate(343.0173860946317 27.152744397690753) rotate(0 38.10185241699219 7.732738677145107)"><text x="0" y="0" font-family="Helvetica, Segoe UI Emoji" font-size="13.448241177643665px" fill="#000" text-anchor="start" style="white-space: pre;" direction="ltr" dominant-baseline="text-before-edge">Show Tables</text></g><g stroke-linecap="round" transform="translate(196.38259774628426 23.529622897888544) rotate(0 56.36845030869594 11.669342875682958)"><path d="M5.83 0 L109.45 0.36 L111.28 1.46 L112.37 3.28 L112.37 20.06 L111.28 21.88 L106.9 23.34 L3.28 22.97 L1.46 21.88 L0.36 20.06 L0 5.83 L1.46 1.46 L5.83 0" stroke="none" stroke-width="0" fill="#ced4da"></path><path d="M5.83 0 M5.83 0 C44.37 0, 82.91 0, 106.9 0 M5.83 0 C33.56 0, 61.28 0, 106.9 0 M106.9 0 C110.79 0, 112.74 1.94, 112.74 5.83 M106.9 0 C110.79 0, 112.74 1.94, 112.74 5.83 M112.74 5.83 C112.74 10.39, 112.74 14.95, 112.74 17.5 M112.74 5.83 C112.74 9.7, 112.74 13.57, 112.74 17.5 M112.74 17.5 C112.74 21.39, 110.79 23.34, 106.9 23.34 M112.74 17.5 C112.74 21.39, 110.79 23.34, 106.9 23.34 M106.9 23.34 C72.13 23.34, 37.36 23.34, 5.83 23.34 M106.9 23.34 C73.79 23.34, 40.69 23.34, 5.83 23.34 M5.83 23.34 C1.94 23.34, 0 21.39, 0 17.5 M5.83 23.34 C1.94 23.34, 0 21.39, 0 17.5 M0 17.5 C0 13.32, 0 9.13, 0 5.83 M0 17.5 C0 15.04, 0 12.58, 0 5.83 M0 5.83 C0 1.94, 1.94 0, 5.83 0 M0 5.83 C0 1.94, 1.94 0, 5.83 0" stroke="#ced4da" stroke-width="1" fill="none"></path></g><g transform="translate(223.85517509576022 27.661829791283594) rotate(0 38.46277618408203 7.732738677145107)"><text x="0" y="0" font-family="Helvetica, Segoe UI Emoji" font-size="13.448241177643665px" fill="#000" text-anchor="start" style="white-space: pre;" direction="ltr" dominant-baseline="text-before-edge">Browse Files</text></g><g stroke-linecap="round" transform="translate(439.76734249184057 311.44273199825795) rotate(0 85.25506166371974 14.209176943953253)"><path d="M7.1 0 L163.41 0 L166.51 0.44 L168.73 1.78 L170.07 4 L170.51 21.31 L170.07 24.42 L168.73 26.64 L166.51 27.97 L163.41 28.42 L7.1 28.42 L4 27.97 L1.78 26.64 L0.44 24.42 L0 21.31 L0.44 4 L1.78 1.78 L4 0.44 L7.1 0" stroke="none" stroke-width="0" fill="#000"></path><path d="M7.1 0 M7.1 0 C53.84 0, 100.59 0, 163.41 0 M7.1 0 C61.23 0, 115.36 0, 163.41 0 M163.41 0 C168.14 0, 170.51 2.37, 170.51 7.1 M163.41 0 C168.14 0, 170.51 2.37, 170.51 7.1 M170.51 7.1 C170.51 10.49, 170.51 13.88, 170.51 21.31 M170.51 7.1 C170.51 12.68, 170.51 18.25, 170.51 21.31 M170.51 21.31 C170.51 26.05, 168.14 28.42, 163.41 28.42 M170.51 21.31 C170.51 26.05, 168.14 28.42, 163.41 28.42 M163.41 28.42 C118.13 28.42, 72.86 28.42, 7.1 28.42 M163.41 28.42 C114.16 28.42, 64.91 28.42, 7.1 28.42 M7.1 28.42 C2.37 28.42, 0 26.05, 0 21.31 M7.1 28.42 C2.37 28.42, 0 26.05, 0 21.31 M0 21.31 C0 16.43, 0 11.55, 0 7.1 M0 21.31 C0 15.65, 0 9.99, 0 7.1 M0 7.1 C0 2.37, 2.37 0, 7.1 0 M0 7.1 C0 2.37, 2.37 0, 7.1 0" stroke="#000" stroke-width="1" fill="none"></path></g><g transform="translate(485.9994042753205 316.978166724771) rotate(0 39.01763916015625 9.72625778255997)"><text x="0" y="0" font-family="Helvetica, Segoe UI Emoji" font-size="16.915230926191295px" fill="white" text-anchor="start" style="white-space: pre;" direction="ltr" dominant-baseline="text-before-edge">Load Data</text></g><g stroke-linecap="round" transform="translate(334.8406637999743 271.4642379551045) rotate(0 5.242444039317974 3.14546642359079)"><path d="M0 0 C0 0, 0 0, 0 0 M0 0 C0 0, 0 0, 0 0 M-0.21 6.74 C1.47 4.32, 3.68 1.76, 5.6 0.37 M-0.46 6.4 C0.5 5.35, 1.67 3.84, 4.62 0.19 M2.3 9.92 C5 7.44, 6.07 2.71, 9.75 0.56 M3.11 9.1 C4.49 7.3, 6.7 4.02, 10.11 0.34 M8.49 8.65 C8.93 7.76, 9.72 6.99, 10.32 6.22 M8.33 8.65 C9.06 8.01, 9.65 7.29, 10.23 6.4" stroke="#868e96" stroke-width="0.5" fill="none"></path><path d="M0.11 0.39 C3.09 -0.69, 4.97 0.27, 11.41 0.93 M0.23 0.49 C3.16 -0.37, 6.47 -0.53, 10.07 -0.02 M10.42 0.23 C9.98 2.16, 9.97 3.98, 10.61 5.73 M10.32 0.17 C10.55 2.5, 10.24 4.58, 10.78 6.16 M9.69 6.7 C8.8 5.52, 5.92 5.74, -0.63 6.1 M10.47 5.79 C7.32 6.15, 3.41 6.41, 0.23 6.15 M-0.21 6.45 C-0.36 4.58, -0.33 3, -0.11 -0.42 M-0.13 6.32 C0.09 4.57, 0.06 3.44, 0.23 0.26" stroke="#000000" stroke-width="1" fill="none"></path></g><g stroke-linecap="round"><g transform="translate(341.1315966471559 271.4642379551045) rotate(0 -3.255079420167405 -1.0071839841366454)" fill-rule="evenodd"><path d="M-6.59 -1.75 C-6.59 -1.75, -6.59 -1.75, -6.59 -1.75 M-6.59 -1.75 C-6.59 -1.75, -6.59 -1.75, -6.59 -1.75 M-4.23 1.96 C-3.85 0.35, -2.99 0.06, -1.8 -1.33 M-4.3 1.81 C-3.44 0.54, -2.8 -0.12, -1.45 -1.27" stroke="#868e96" stroke-width="0.5" fill="none"></path><path d="M0.15 -0.19 C-0.74 -0.6, -1.14 -1.13, -2.13 -2.26 M0.04 -0.1 C-0.55 -0.78, -1.43 -1.29, -2.14 -2.16 M-2.41 -1.8 C-3.29 -1.71, -3.76 -2.46, -6.08 -1.84 M-2.08 -1.9 C-3.47 -1.96, -4.28 -2.16, -6.39 -2.09 M-6.1 -2.25 C-6.15 -1.58, -6.43 -0.87, -6.26 0.15 M-6.26 -2.13 C-6.38 -1.44, -6.25 -0.86, -6.29 -0.02 M-6.66 0.19 C-5.01 0.48, -3.16 -0.43, -0.38 -0.18 M-6.22 -0.22 C-4.82 0.16, -3.2 0.25, 0.04 0.01 M0 0 C0 0, 0 0, 0 0 M0 0 C0 0, 0 0, 0 0" stroke="#000000" stroke-width="1" fill="none"></path></g></g><mask></mask><g stroke-linecap="round"><g transform="translate(210.1847878916717 34.39376685393415) rotate(268.46565766454853 3.225799076860625 0.892887487967414)"><path d="M-0.64 0.65 C0.4 0.64, 5.89 0.28, 7.1 0.22 M1.22 -0.06 C2.08 0.13, 5.64 1.56, 6.41 1.84" stroke="#000000" stroke-width="1" fill="none"></path></g></g><mask></mask><g stroke-linecap="round"><g transform="translate(214.19816830163342 31.553874282259358) rotate(542.0866093652755 -1.6711559591698233 0.9491053676795786)"><path d="M0.04 0 C-0.37 0.48, -0.71 0.68, -1.84 1.7 M-0.06 0.02 C-0.48 0.4, -0.8 1.06, -1.61 1.92 M-1.97 1.85 C-1.96 1.56, -2.48 0.8, -3.34 0.19 M-1.74 1.76 C-2.2 1.16, -2.76 0.55, -3.38 -0.02" stroke="#000000" stroke-width="1" fill="none"></path></g></g><mask></mask><g stroke-linecap="round" transform="translate(206.59131428973012 28.990342387371925) rotate(358.4656576645484 5.9942914224835135 5.9942914224835135)"><path d="M5.73 -0.59 C6.82 -0.34, 8.78 1.46, 9.7 2.34 C10.62 3.22, 10.98 3.59, 11.24 4.69 C11.5 5.79, 11.94 7.63, 11.26 8.95 C10.58 10.27, 8.31 12.04, 7.16 12.62 C6.01 13.2, 5.34 13.16, 4.35 12.42 C3.36 11.68, 1.95 9.57, 1.21 8.17 C0.47 6.78, -0.13 5.19, -0.11 4.04 C-0.09 2.89, 0.01 1.82, 1.33 1.26 C2.64 0.71, 6.61 0.95, 7.75 0.7 C8.89 0.45, 8.24 -0.35, 8.17 -0.23 M6.87 -1.09 C8.46 -1.12, 10.51 0.13, 11.54 1.19 C12.56 2.24, 13.1 3.86, 13.02 5.24 C12.94 6.62, 12.04 8.59, 11.06 9.46 C10.08 10.34, 8.47 9.97, 7.14 10.49 C5.82 11.01, 4.41 13.24, 3.12 12.58 C1.83 11.93, 0.09 7.79, -0.59 6.57 C-1.26 5.35, -1.55 6.31, -0.91 5.25 C-0.27 4.2, 1.94 1.18, 3.27 0.23 C4.6 -0.72, 6.35 -0.51, 7.08 -0.46 C7.82 -0.41, 7.55 0.51, 7.68 0.54" stroke="#000000" stroke-width="1" fill="none"></path></g><g stroke-linecap="round"><g transform="translate(329.8646841226028 28.890626693444233) rotate(0 3.287747261273239 5.30343788262104)"><path d="M0 0 C1.7 0, 3.4 0, 4.93 0 M0 0 C1.1 0, 2.2 0, 4.93 0 M4.93 0 C5.5 0.73, 6.07 1.47, 6.58 2.12 M4.93 0 C5.45 0.66, 5.96 1.33, 6.58 2.12 M6.58 2.12 C6.58 4.48, 6.58 6.84, 6.58 10.61 M6.58 2.12 C6.58 3.98, 6.58 5.85, 6.58 10.61 M6.58 10.61 C4.22 10.61, 1.87 10.61, 0 10.61 M6.58 10.61 C4.25 10.61, 1.92 10.61, 0 10.61 M0 10.61 C0 8.41, 0 6.21, 0 0 M0 10.61 C0 7.72, 0 4.84, 0 0 M0 0 C1.02 0, 2.05 0, 4.93 0 M0 0 C1.06 0, 2.13 0, 4.93 0 M4.93 0 C4.93 0.54, 4.93 1.09, 4.93 2.12 M4.93 0 C4.93 0.55, 4.93 1.1, 4.93 2.12 M4.93 2.12 C5.47 2.12, 6 2.12, 6.58 2.12 M4.93 2.12 C5.33 2.12, 5.74 2.12, 6.58 2.12" stroke="#000000" stroke-width="2" fill="none"></path></g></g><mask></mask></svg>