<svg version="1.1" xmlns="http://www.w3.org/2000/svg" viewBox="0 0 641.6898990595263 363.634479043679" width="1925.0696971785787" height="1090.903437131037">
  <!-- svg-source:excalidraw -->
  
  <defs>
    <style class="style-fonts">
      @font-face {
        font-family: "Virgil";
        src: url("https://excalidraw.com/Virgil.woff2");
      }
      @font-face {
        font-family: "Cascadia";
        src: url("https://excalidraw.com/Cascadia.woff2");
      }
    </style>
  </defs>
  <rect x="0" y="0" width="641.6898990595263" height="363.634479043679" fill="#ffffff"></rect><g stroke-linecap="round" transform="translate(22.30271499538793 122.80751876639943) rotate(0 47.378539633479505 9.131606093351024)"><path d="M4.57 0 L92.19 0.29 L94.47 2.57 L94.47 15.69 L93.62 17.12 L90.19 18.26 L2.57 17.98 L0.29 15.69 L0 4.57 L1.14 1.14 L4.57 0" stroke="none" stroke-width="0" fill="#ced4da"></path><path d="M4.57 0 M4.57 0 C32.67 0, 60.78 0, 90.19 0 M4.57 0 C28.57 0, 52.57 0, 90.19 0 M90.19 0 C93.24 0, 94.76 1.52, 94.76 4.57 M90.19 0 C93.24 0, 94.76 1.52, 94.76 4.57 M94.76 4.57 C94.76 7.76, 94.76 10.95, 94.76 13.7 M94.76 4.57 C94.76 7.44, 94.76 10.31, 94.76 13.7 M94.76 13.7 C94.76 16.74, 93.24 18.26, 90.19 18.26 M94.76 13.7 C94.76 16.74, 93.24 18.26, 90.19 18.26 M90.19 18.26 C71.88 18.26, 53.56 18.26, 4.57 18.26 M90.19 18.26 C69.01 18.26, 47.82 18.26, 4.57 18.26 M4.57 18.26 C1.52 18.26, 0 16.74, 0 13.7 M4.57 18.26 C1.52 18.26, 0 16.74, 0 13.7 M0 13.7 C0 10.37, 0 7.04, 0 4.57 M0 13.7 C0 11.09, 0 8.48, 0 4.57 M0 4.57 C0 1.52, 1.52 0, 4.57 0 M0 4.57 C0 1.52, 1.52 0, 4.57 0" stroke="#ced4da" stroke-width="1" fill="none"></path></g><g stroke-linecap="round" transform="translate(332.0888672334718 21.458728152673302) rotate(0 63.301543221137564 13.01526246970758)"><path d="M6.51 0 L122.94 0.41 L124.98 1.63 L126.2 3.66 L126.2 22.37 L124.98 24.4 L122.94 25.62 L120.1 26.03 L3.66 25.62 L1.63 24.4 L0.41 22.37 L0 6.51 L0.41 3.66 L1.63 1.63 L3.66 0.41 L6.51 0" stroke="none" stroke-width="0" fill="#ced4da"></path><path d="M6.51 0 M6.51 0 C35.43 0, 64.34 0, 120.1 0 M6.51 0 C36.49 0, 66.48 0, 120.1 0 M120.1 0 C124.43 0, 126.6 2.17, 126.6 6.51 M120.1 0 C124.43 0, 126.6 2.17, 126.6 6.51 M126.6 6.51 C126.6 10.36, 126.6 14.2, 126.6 19.52 M126.6 6.51 C126.6 11.2, 126.6 15.9, 126.6 19.52 M126.6 19.52 C126.6 23.86, 124.43 26.03, 120.1 26.03 M126.6 19.52 C126.6 23.86, 124.43 26.03, 120.1 26.03 M120.1 26.03 C94.48 26.03, 68.87 26.03, 6.51 26.03 M120.1 26.03 C79.27 26.03, 38.45 26.03, 6.51 26.03 M6.51 26.03 C2.17 26.03, 0 23.86, 0 19.52 M6.51 26.03 C2.17 26.03, 0 23.86, 0 19.52 M0 19.52 C0 14.74, 0 9.96, 0 6.51 M0 19.52 C0 16.56, 0 13.59, 0 6.51 M0 6.51 C0 2.17, 2.17 0, 6.51 0 M0 6.51 C0 2.17, 2.17 0, 6.51 0" stroke="#ced4da" stroke-width="1" fill="none"></path></g><g stroke-linecap="round" transform="translate(10 10) rotate(0 310.84494952976314 171.8172395218395)"><path d="M0 0 C218.7 0, 437.4 0, 621.69 0 M0 0 C157.72 0, 315.45 0, 621.69 0 M621.69 0 C621.69 100.41, 621.69 200.83, 621.69 343.63 M621.69 0 C621.69 72.33, 621.69 144.65, 621.69 343.63 M621.69 343.63 C387.86 343.63, 154.03 343.63, 0 343.63 M621.69 343.63 C394.08 343.63, 166.47 343.63, 0 343.63 M0 343.63 C0 249.29, 0 154.94, 0 0 M0 343.63 C0 268.12, 0 192.61, 0 0" stroke="#000000" stroke-width="1" fill="none"></path></g><g stroke-opacity="0.5" fill-opacity="0.5" stroke-linecap="round" transform="translate(522.9620405779832 16.84562238219769) rotate(0 50.277322616940154 16.176281214222627)"><path d="M8.09 0 M8.09 0 C38.15 0, 68.22 0, 92.47 0 M8.09 0 C27.39 0, 46.69 0, 92.47 0 M92.47 0 C97.86 0, 100.55 2.7, 100.55 8.09 M92.47 0 C97.86 0, 100.55 2.7, 100.55 8.09 M100.55 8.09 C100.55 12.73, 100.55 17.38, 100.55 24.26 M100.55 8.09 C100.55 12.96, 100.55 17.83, 100.55 24.26 M100.55 24.26 C100.55 29.66, 97.86 32.35, 92.47 32.35 M100.55 24.26 C100.55 29.66, 97.86 32.35, 92.47 32.35 M92.47 32.35 C69.45 32.35, 46.43 32.35, 8.09 32.35 M92.47 32.35 C68.19 32.35, 43.91 32.35, 8.09 32.35 M8.09 32.35 C2.7 32.35, 0 29.66, 0 24.26 M8.09 32.35 C2.7 32.35, 0 29.66, 0 24.26 M0 24.26 C0 20.2, 0 16.14, 0 8.09 M0 24.26 C0 19.34, 0 14.41, 0 8.09 M0 8.09 C0 2.7, 2.7 0, 8.09 0 M0 8.09 C0 2.7, 2.7 0, 8.09 0" stroke="#000000" stroke-width="1" fill="none"></path></g><g stroke-linecap="round" transform="translate(563.1837451746638 23.092075445108094) rotate(0 10.929830993438827 9.99299466754411)"><path d="M21.86 9.99 C21.86 10.57, 21.8 11.16, 21.69 11.73 C21.58 12.3, 21.42 12.87, 21.2 13.41 C20.98 13.95, 20.71 14.49, 20.4 14.99 C20.08 15.49, 19.71 15.97, 19.3 16.42 C18.9 16.86, 18.44 17.28, 17.96 17.65 C17.47 18.02, 16.94 18.36, 16.39 18.65 C15.85 18.94, 15.26 19.19, 14.67 19.38 C14.07 19.58, 13.45 19.73, 12.83 19.83 C12.2 19.93, 11.56 19.99, 10.93 19.99 C10.3 19.99, 9.65 19.93, 9.03 19.83 C8.41 19.73, 7.79 19.58, 7.19 19.38 C6.6 19.19, 6.01 18.94, 5.46 18.65 C4.92 18.36, 4.39 18.02, 3.9 17.65 C3.42 17.28, 2.96 16.86, 2.56 16.42 C2.15 15.97, 1.78 15.49, 1.46 14.99 C1.15 14.49, 0.88 13.95, 0.66 13.41 C0.44 12.87, 0.28 12.3, 0.17 11.73 C0.06 11.16, 0 10.57, 0 9.99 C0 9.41, 0.06 8.83, 0.17 8.26 C0.28 7.69, 0.44 7.12, 0.66 6.58 C0.88 6.03, 1.15 5.5, 1.46 5 C1.78 4.5, 2.15 4.01, 2.56 3.57 C2.96 3.13, 3.42 2.71, 3.9 2.34 C4.39 1.97, 4.92 1.63, 5.46 1.34 C6.01 1.05, 6.6 0.8, 7.19 0.6 C7.79 0.4, 8.41 0.25, 9.03 0.15 C9.65 0.05, 10.3 0, 10.93 0 C11.56 0, 12.2 0.05, 12.83 0.15 C13.45 0.25, 14.07 0.4, 14.67 0.6 C15.26 0.8, 15.85 1.05, 16.39 1.34 C16.94 1.63, 17.47 1.97, 17.96 2.34 C18.44 2.71, 18.9 3.13, 19.3 3.57 C19.71 4.01, 20.08 4.5, 20.4 5 C20.71 5.5, 20.98 6.03, 21.2 6.58 C21.42 7.12, 21.58 7.69, 21.69 8.26 C21.8 8.83, 21.83 9.7, 21.86 9.99 C21.89 10.28, 21.89 9.7, 21.86 9.99" stroke="none" stroke-width="0" fill="#ced4da"></path><path d="M21.86 9.99 C21.86 10.57, 21.8 11.16, 21.69 11.73 C21.58 12.3, 21.42 12.87, 21.2 13.41 C20.98 13.95, 20.71 14.49, 20.4 14.99 C20.08 15.49, 19.71 15.97, 19.3 16.42 C18.9 16.86, 18.44 17.28, 17.96 17.65 C17.47 18.02, 16.94 18.36, 16.39 18.65 C15.85 18.94, 15.26 19.19, 14.67 19.38 C14.07 19.58, 13.45 19.73, 12.83 19.83 C12.2 19.93, 11.56 19.99, 10.93 19.99 C10.3 19.99, 9.65 19.93, 9.03 19.83 C8.41 19.73, 7.79 19.58, 7.19 19.38 C6.6 19.19, 6.01 18.94, 5.46 18.65 C4.92 18.36, 4.39 18.02, 3.9 17.65 C3.42 17.28, 2.96 16.86, 2.56 16.42 C2.15 15.97, 1.78 15.49, 1.46 14.99 C1.15 14.49, 0.88 13.95, 0.66 13.41 C0.44 12.87, 0.28 12.3, 0.17 11.73 C0.06 11.16, 0 10.57, 0 9.99 C0 9.41, 0.06 8.83, 0.17 8.26 C0.28 7.69, 0.44 7.12, 0.66 6.58 C0.88 6.03, 1.15 5.5, 1.46 5 C1.78 4.5, 2.15 4.01, 2.56 3.57 C2.96 3.13, 3.42 2.71, 3.9 2.34 C4.39 1.97, 4.92 1.63, 5.46 1.34 C6.01 1.05, 6.6 0.8, 7.19 0.6 C7.79 0.4, 8.41 0.25, 9.03 0.15 C9.65 0.05, 10.3 0, 10.93 0 C11.56 0, 12.2 0.05, 12.83 0.15 C13.45 0.25, 14.07 0.4, 14.67 0.6 C15.26 0.8, 15.85 1.05, 16.39 1.34 C16.94 1.63, 17.47 1.97, 17.96 2.34 C18.44 2.71, 18.9 3.13, 19.3 3.57 C19.71 4.01, 20.08 4.5, 20.4 5 C20.71 5.5, 20.98 6.03, 21.2 6.58 C21.42 7.12, 21.58 7.69, 21.69 8.26 C21.8 8.83, 21.83 9.7, 21.86 9.99 C21.89 10.28, 21.89 9.7, 21.86 9.99" stroke="#000000" stroke-width="2" fill="none"></path></g><g stroke-linecap="round" transform="translate(565.2716691438387 23.95792042376661) rotate(0 9.508042787598953 9.508042787598924)"><path d="M9.25 0.38 C11.11 0.28, 13.3 0.94, 15.05 2 C16.8 3.06, 19.26 4.69, 19.74 6.73 C20.22 8.77, 19.2 12.37, 17.93 14.25 C16.65 16.12, 13.91 17.29, 12.11 17.99 C10.31 18.68, 9.02 18.95, 7.13 18.42 C5.24 17.89, 1.8 16.7, 0.77 14.83 C-0.25 12.95, 0.71 9.3, 0.98 7.18 C1.26 5.07, 1 3.42, 2.42 2.13 C3.83 0.84, 8.14 -0.17, 9.48 -0.57 C10.81 -0.98, 10.44 -0.42, 10.44 -0.29 M6.74 1.78 C8.64 1.21, 10.56 -0.01, 12.25 0.59 C13.95 1.19, 15.75 3.63, 16.9 5.37 C18.04 7.12, 19.21 9.04, 19.13 11.08 C19.06 13.12, 17.98 16.09, 16.44 17.63 C14.89 19.16, 12.08 20.48, 9.86 20.27 C7.64 20.06, 4.84 17.59, 3.11 16.35 C1.38 15.1, -0.05 14.82, -0.51 12.79 C-0.96 10.77, -0.66 6.4, 0.36 4.18 C1.37 1.97, 4.44 0.27, 5.56 -0.49 C6.67 -1.25, 6.97 -0.7, 7.05 -0.37" stroke="none" stroke-width="0" fill="white"></path><path d="M14.42 1.35 C16.02 2.05, 17 3.15, 17.64 4.95 C18.27 6.75, 18.72 10.08, 18.22 12.14 C17.73 14.21, 16.22 16.35, 14.69 17.33 C13.15 18.32, 11.04 18.28, 9 18.06 C6.97 17.84, 3.98 17.32, 2.46 16 C0.95 14.68, 0.14 12.14, -0.07 10.15 C-0.28 8.16, -0.16 5.85, 1.21 4.06 C2.58 2.26, 5.99 -0.05, 8.15 -0.64 C10.31 -1.23, 13.04 0.15, 14.18 0.54 C15.32 0.92, 15.21 1.29, 14.98 1.65 M9.46 0.08 C11.45 -0.26, 14.06 -0.12, 15.4 0.71 C16.75 1.55, 17.11 3.13, 17.53 5.1 C17.95 7.08, 18.27 10.37, 17.92 12.57 C17.56 14.78, 17.25 17.28, 15.41 18.31 C13.56 19.34, 9.27 19.28, 6.85 18.76 C4.44 18.24, 2.07 16.84, 0.91 15.18 C-0.24 13.52, -0.17 10.9, -0.08 8.81 C0 6.71, 0.07 3.93, 1.43 2.61 C2.78 1.29, 6.72 1.28, 8.05 0.9 C9.38 0.52, 9.23 0.57, 9.41 0.34" stroke="#000000" stroke-width="1" fill="none"></path></g><g stroke-linecap="round" transform="translate(571.6203220454905 27.494879772091736) rotate(0 3.3720992332673347 3.372099233267363)"><path d="M2.2 0.06 C3.01 -0.36, 5.05 -0.87, 5.77 -0.51 C6.49 -0.14, 6.51 1.49, 6.5 2.23 C6.49 2.97, 5.8 3.31, 5.7 3.95 C5.59 4.58, 6.42 5.54, 5.87 6.05 C5.31 6.57, 3.05 7.26, 2.37 7.05 C1.7 6.83, 2.35 5.38, 1.83 4.76 C1.31 4.14, -0.49 3.99, -0.76 3.33 C-1.02 2.67, -0.38 1.45, 0.23 0.81 C0.85 0.17, 2.45 -0.27, 2.93 -0.51 C3.41 -0.76, 3.22 -0.66, 3.11 -0.64 M1.61 0.5 C1.95 0.11, 2.64 0.8, 3.42 0.97 C4.19 1.15, 5.61 0.95, 6.26 1.55 C6.91 2.15, 7.38 3.67, 7.32 4.56 C7.26 5.45, 6.57 6.65, 5.9 6.91 C5.22 7.16, 4.12 5.97, 3.28 6.07 C2.44 6.18, 1.5 7.96, 0.85 7.54 C0.2 7.12, -0.44 4.65, -0.61 3.54 C-0.78 2.44, -0.72 1.64, -0.15 0.9 C0.43 0.17, 2.54 -0.76, 2.83 -0.86 C3.11 -0.95, 1.82 0.23, 1.56 0.32" stroke="none" stroke-width="0" fill="black"></path><path d="M2.04 -0.59 C2.5 -0.85, 3.74 -0.04, 4.46 0.39 C5.17 0.82, 5.88 1.48, 6.32 1.99 C6.75 2.49, 7.29 2.75, 7.08 3.43 C6.86 4.11, 5.71 5.52, 5.01 6.06 C4.31 6.6, 3.66 6.72, 2.88 6.68 C2.1 6.64, 0.64 6.48, 0.32 5.81 C0 5.14, 0.9 3.5, 0.96 2.64 C1.02 1.79, 0.18 1.12, 0.68 0.67 C1.17 0.23, 3.47 -0.06, 3.95 -0.03 C4.43 0, 3.66 0.78, 3.54 0.88 M3.11 -0.54 C3.36 -1.05, 3.07 -1.54, 3.54 -1.25 C4 -0.96, 5.14 0.28, 5.9 1.22 C6.67 2.17, 8.3 3.62, 8.12 4.4 C7.94 5.19, 5.81 5.57, 4.83 5.93 C3.85 6.29, 2.86 6.62, 2.23 6.56 C1.61 6.5, 1.62 6.09, 1.09 5.56 C0.56 5.03, -0.84 3.9, -0.97 3.38 C-1.09 2.87, -0.4 2.98, 0.34 2.46 C1.07 1.94, 3 0.87, 3.45 0.25 C3.91 -0.36, 3.02 -1.08, 3.07 -1.23" stroke="#000000" stroke-width="1" fill="none"></path></g><g stroke-linecap="round"><g transform="translate(568.2909524163457 38.56088057179568) rotate(0 5.982098775054823 -0.3263854299632385)" fill-rule="evenodd"><path d="M-0.07 -1.8 L7.89 -3.99 L13.6 -1.59 L9.86 3.37 L6.19 2.32 L-1.36 -1.95" stroke="none" stroke-width="0" fill="black" fill-rule="evenodd"></path><path d="M-0.56 0.91 C-0.18 0.3, 2.3 -2.13, 3.36 -2.94 C4.43 -3.75, 4.57 -4.04, 5.81 -3.95 C7.05 -3.85, 9.57 -3.07, 10.78 -2.36 C11.99 -1.64, 13.19 -0.41, 13.07 0.33 C12.95 1.07, 10.91 1.6, 10.06 2.09 C9.22 2.58, 8.84 3.18, 7.99 3.26 C7.15 3.34, 5.9 2.58, 4.99 2.57 C4.09 2.57, 3.58 3.64, 2.56 3.21 C1.54 2.78, -0.55 0.46, -1.11 0.01 M1.35 0.35 C1.52 -0.18, 1.51 -1.21, 2.67 -1.75 C3.82 -2.29, 6.88 -2.97, 8.28 -2.9 C9.68 -2.83, 10.5 -2, 11.05 -1.35 C11.6 -0.69, 11.59 0.65, 11.56 1.02 C11.54 1.4, 11.41 0.77, 10.9 0.91 C10.4 1.05, 9.72 1.7, 8.56 1.85 C7.39 2.01, 5.21 1.76, 3.94 1.85 C2.68 1.95, 1.77 2.81, 0.96 2.43 C0.15 2.05, -0.61 -0.32, -0.93 -0.43" stroke="#000000" stroke-width="1" fill="none"></path></g></g><mask></mask><g stroke-opacity="0.5" fill-opacity="0.5" stroke-linecap="round" transform="translate(193.7751385901479 18.159147902904124) rotate(0 134.60067169154775 16.176281214222627)"><path d="M8.09 0 M8.09 0 C72.22 0, 136.36 0, 261.11 0 M8.09 0 C80.13 0, 152.18 0, 261.11 0 M261.11 0 C266.51 0, 269.2 2.7, 269.2 8.09 M261.11 0 C266.51 0, 269.2 2.7, 269.2 8.09 M269.2 8.09 C269.2 12.89, 269.2 17.68, 269.2 24.26 M269.2 8.09 C269.2 12.93, 269.2 17.77, 269.2 24.26 M269.2 24.26 C269.2 29.66, 266.51 32.35, 261.11 32.35 M269.2 24.26 C269.2 29.66, 266.51 32.35, 261.11 32.35 M261.11 32.35 C202.28 32.35, 143.44 32.35, 8.09 32.35 M261.11 32.35 C210.22 32.35, 159.32 32.35, 8.09 32.35 M8.09 32.35 C2.7 32.35, 0 29.66, 0 24.26 M8.09 32.35 C2.7 32.35, 0 29.66, 0 24.26 M0 24.26 C0 19.98, 0 15.7, 0 8.09 M0 24.26 C0 20.65, 0 17.03, 0 8.09 M0 8.09 C0 2.7, 2.7 0, 8.09 0 M0 8.09 C0 2.7, 2.7 0, 8.09 0" stroke="#000000" stroke-width="1" fill="none"></path></g><g stroke-linecap="round"><g stroke-opacity="0.5" fill-opacity="0.5" transform="translate(328.27668655627747 22.658437655160924) rotate(0 0 12.22815467555779)"><path d="M0 0 C0 4.08, 0 20.38, 0 24.46 M0 0 C0 4.08, 0 20.38, 0 24.46" stroke="#000000" stroke-width="1" fill="none"></path></g></g><mask></mask><g transform="translate(363.9538354578193 26.155817442502325) rotate(0 41.85298557820863 8.488817743179197)"><text x="0" y="0" font-family="Helvetica, Segoe UI Emoji" font-size="14.763161292485579px" fill="#000" text-anchor="start" style="white-space: pre;" direction="ltr" dominant-baseline="text-before-edge">Show Tables</text></g><g transform="translate(231.44991120305428 26.103702326906614) rotate(0 41.0670166015625 8.253391839336587)"><text x="0" y="0" font-family="Helvetica, Segoe UI Emoji" font-size="14.35372493797666px" fill="#000" text-anchor="start" style="white-space: pre;" direction="ltr" dominant-baseline="text-before-edge">Browse Files</text></g><g stroke-linecap="round" transform="translate(18.381997504221886 82.5443935442047) rotate(0 163.60974229921422 12.266662486659698)"><path d="M6.13 0 L321.09 0 L323.77 0.38 L325.69 1.53 L326.84 3.45 L327.22 18.4 L325.69 23 L321.09 24.53 L6.13 24.53 L1.53 23 L0 18.4 L0.38 3.45 L1.53 1.53 L6.13 0" stroke="none" stroke-width="0" fill="#f2f2f2"></path><path d="M6.13 0 M6.13 0 C124.53 0, 242.93 0, 321.09 0 M6.13 0 C126.32 0, 246.51 0, 321.09 0 M321.09 0 C325.18 0, 327.22 2.04, 327.22 6.13 M321.09 0 C325.18 0, 327.22 2.04, 327.22 6.13 M327.22 6.13 C327.22 10.29, 327.22 14.44, 327.22 18.4 M327.22 6.13 C327.22 10.08, 327.22 14.03, 327.22 18.4 M327.22 18.4 C327.22 22.49, 325.18 24.53, 321.09 24.53 M327.22 18.4 C327.22 22.49, 325.18 24.53, 321.09 24.53 M321.09 24.53 C224.95 24.53, 128.81 24.53, 6.13 24.53 M321.09 24.53 C249.14 24.53, 177.19 24.53, 6.13 24.53 M6.13 24.53 C2.04 24.53, 0 22.49, 0 18.4 M6.13 24.53 C2.04 24.53, 0 22.49, 0 18.4 M0 18.4 C0 15.6, 0 12.8, 0 6.13 M0 18.4 C0 14.02, 0 9.63, 0 6.13 M0 6.13 C0 2.04, 2.04 0, 6.13 0 M0 6.13 C0 2.04, 2.04 0, 6.13 0" stroke="#000" stroke-width="1" fill="none"></path></g><g stroke-linecap="round" transform="translate(18.801635723305367 118.93002410362328) rotate(0 139.24789887790467 12.56144209188119)"><path d="M6.28 0 M6.28 0 C79.01 0, 151.73 0, 272.22 0 M6.28 0 C105.86 0, 205.44 0, 272.22 0 M272.22 0 C276.4 0, 278.5 2.09, 278.5 6.28 M272.22 0 C276.4 0, 278.5 2.09, 278.5 6.28 M278.5 6.28 C278.5 9.47, 278.5 12.65, 278.5 18.84 M278.5 6.28 C278.5 8.87, 278.5 11.45, 278.5 18.84 M278.5 18.84 C278.5 23.03, 276.4 25.12, 272.22 25.12 M278.5 18.84 C278.5 23.03, 276.4 25.12, 272.22 25.12 M272.22 25.12 C191.23 25.12, 110.25 25.12, 6.28 25.12 M272.22 25.12 C171.33 25.12, 70.44 25.12, 6.28 25.12 M6.28 25.12 C2.09 25.12, 0 23.03, 0 18.84 M6.28 25.12 C2.09 25.12, 0 23.03, 0 18.84 M0 18.84 C0 14.74, 0 10.64, 0 6.28 M0 18.84 C0 15.72, 0 12.6, 0 6.28 M0 6.28 C0 2.09, 2.09 0, 6.28 0 M0 6.28 C0 2.09, 2.09 0, 6.28 0" stroke="#000" stroke-width="1" fill="none"></path></g><g stroke-linecap="round" transform="translate(19.78857903869101 151.12572626262136) rotate(0 279.4240549998167 94.7579381295626)"><path d="M0 0 C123.33 0, 246.65 0, 558.85 0 M0 0 C134.63 0, 269.26 0, 558.85 0 M558.85 0 C558.85 50.01, 558.85 100.03, 558.85 189.52 M558.85 0 C558.85 62.22, 558.85 124.44, 558.85 189.52 M558.85 189.52 C383.75 189.52, 208.65 189.52, 0 189.52 M558.85 189.52 C441.82 189.52, 324.79 189.52, 0 189.52 M0 189.52 C0 133.01, 0 76.5, 0 0 M0 189.52 C0 116.73, 0 43.94, 0 0" stroke="#000" stroke-width="1" fill="none"></path></g><g stroke-linecap="round"><g transform="translate(19.77266452235733 179.76334550780575) rotate(0 279.3387351746694 -0.37305710087787247)"><path d="M0 0 C177.03 -0.24, 354.06 -0.47, 558.68 -0.75 M0 0 C127.72 -0.17, 255.45 -0.34, 558.68 -0.75" stroke="#000" stroke-width="1" fill="none"></path></g></g><mask></mask><g stroke-linecap="round"><g transform="translate(585.4329433160985 159.31365946071014) rotate(447.6997061126023 3.0810985461431812 1.6797765021543682)"><path d="M-0.35 -0.14 C1.28 1.46, 2.84 2.93, 3.28 3.21 M-0.09 -0.07 C1.1 1.04, 2.18 2.36, 3.12 3.26 M2.86 3.51 C3.87 2.3, 5.39 1.36, 6.51 0.42 M2.88 3.14 C4.44 2.26, 5.31 0.81, 6.22 -0.15" stroke="#000000" stroke-width="1" fill="none"></path></g></g><mask></mask><g stroke-linecap="round" transform="translate(581.4334939640428 154.55958747752265) rotate(447.6997061126023 6.891954484422854 6.891954484422854)"><path d="M0.12 0.51 C5.59 1.08, 9.31 -0.32, 14.71 0.27 M-0.12 -0.57 C3.5 -0.24, 7.72 -0.16, 13.91 -0.27 M13.16 -0.01 C14.78 3.41, 14.85 7.38, 14.97 13.63 M14.29 0.56 C13.24 3.34, 13.89 6.06, 13.34 13.91 M12.56 14.9 C10.94 13.29, 7.95 14.69, -1.1 12.82 M13.35 13.9 C10.4 14.22, 7.27 13.08, -0.09 13.83 M-0.79 12.45 C0.46 8.94, -0.58 1.9, 1.23 -0.47 M0.45 13.97 C-0.04 8.45, 0.57 3.13, 0.47 0.28" stroke="#000000" stroke-width="1" fill="none"></path></g><g stroke-linecap="round"><g transform="translate(605.9185113526364 160.51045028928115) rotate(269.86775275668083 2.9972735419765684 1.462691738677222)"><path d="M0.01 -0.44 C1.43 1.48, 2.06 2.6, 3.15 3.37 M-0.18 0.01 C0.88 0.87, 2.27 2.4, 2.93 3.26 M2.71 3.27 C4.25 2.2, 5.58 0.81, 5.89 -0.29 M3.09 3.13 C3.97 2.51, 4.58 1.68, 6.18 -0.01" stroke="#000000" stroke-width="1" fill="none"></path></g></g><mask></mask><g stroke-linecap="round" transform="translate(602.0168212025467 154.72472172421885) rotate(269.86775275668083 6.891954484422854 6.891954484422854)"><path d="M1 0.84 C2.9 0.81, 6.78 0.24, 14.2 0.89 M-0.49 -0.66 C5.32 0.62, 8.9 -0.22, 14.31 -0.37 M13.78 0.32 C14.21 3.42, 12.89 6.19, 13.24 13.95 M14.06 0.16 C13.47 4.98, 13.89 9.3, 14.01 13.18 M14.03 13.35 C11.31 14.28, 7.94 12.78, -1.3 14.51 M13.87 13.91 C8.64 13.33, 4.19 13.31, 0.2 13.47 M-1.32 14.74 C-0.14 9.2, 0.36 8.35, -1.18 -0.61 M0.41 13.31 C0.18 9.43, 0.57 4.76, 0.16 -0.52" stroke="#000000" stroke-width="1" fill="none"></path></g><g transform="translate(28.46130617230307 125.65182698622766) rotate(0 42.779823303222656 6.704528760239555)"><text x="0" y="0" font-family="Helvetica, Segoe UI Emoji" font-size="11.660050017807846px" fill="#000" text-anchor="start" style="white-space: pre;" direction="ltr" dominant-baseline="text-before-edge">transaction table</text></g><g stroke-linecap="round"><g stroke-opacity="0.4" fill-opacity="0.4" transform="translate(125.58181472117536 122.50608218420393) rotate(0 0 8.932420332416882)"><path d="M0 0 C0 3.65, 0 7.3, 0 17.86 M0 0 C0 6.35, 0 12.7, 0 17.86" stroke="#000" stroke-width="1" fill="none"></path></g></g><mask></mask><g transform="translate(134.8819501160395 125.12473902070337) rotate(0 34.02345275878906 6.704528760239555)"><text x="0" y="0" font-family="Helvetica, Segoe UI Emoji" font-size="11.660050017807846px" fill="#000" text-anchor="start" style="white-space: pre;" direction="ltr" dominant-baseline="text-before-edge">reviews table</text></g><g stroke-linecap="round"><g stroke-opacity="0.4" fill-opacity="0.4" transform="translate(212.54851539731806 122.55894485118893) rotate(0 0 8.932420332416882)"><path d="M0 0 C0 7.03, 0 14.05, 0 17.86 M0 0 C0 6.87, 0 13.74, 0 17.86" stroke="#000" stroke-width="1" fill="none"></path></g></g><mask></mask><g transform="translate(222.66473491452996 125.05768298980979) rotate(0 33.70747375488281 6.704528760239555)"><text x="0" y="0" font-family="Helvetica, Segoe UI Emoji" font-size="11.660050017807846px" fill="#000" text-anchor="start" style="white-space: pre;" direction="ltr" dominant-baseline="text-before-edge">product table</text></g><g transform="translate(34.05681133619993 158.64812657705693) rotate(0 22.199966430664062 5.889290331805)"><text x="0" y="0" font-family="Helvetica, Segoe UI Emoji" font-size="10.24224405531302px" fill="#000" text-anchor="start" style="white-space: pre;" direction="ltr" dominant-baseline="text-before-edge">file_name</text></g><g transform="translate(92.13458745383366 158.70153292065834) rotate(0 33.86994171142578 5.889290331805)"><text x="0" y="0" font-family="Helvetica, Segoe UI Emoji" font-size="10.24224405531302px" fill="#000" text-anchor="start" style="white-space: pre;" direction="ltr" dominant-baseline="text-before-edge">part_file_name</text></g><g transform="translate(176.45510036604384 159.0493176595478) rotate(0 36.42992401123047 5.889290331805)"><text x="0" y="0" font-family="Helvetica, Segoe UI Emoji" font-size="10.24224405531302px" fill="#000" text-anchor="start" style="white-space: pre;" direction="ltr" dominant-baseline="text-before-edge">total_file_record</text></g><g transform="translate(270.2284341300638 158.3104258047731) rotate(0 38.707420349121094 5.889290331805)"><text x="0" y="0" font-family="Helvetica, Segoe UI Emoji" font-size="10.24224405531302px" fill="#000" text-anchor="start" style="white-space: pre;" direction="ltr" dominant-baseline="text-before-edge">total_part_record</text></g><g transform="translate(365.67555200991615 159.00596344287965) rotate(0 22.477455139160156 5.889290331805)"><text x="0" y="0" font-family="Helvetica, Segoe UI Emoji" font-size="10.24224405531302px" fill="#000" text-anchor="start" style="white-space: pre;" direction="ltr" dominant-baseline="text-before-edge">start_time</text></g><g transform="translate(427.8117018076971 158.70156476033048) rotate(0 21.062469482421875 5.889290331805)"><text x="0" y="0" font-family="Helvetica, Segoe UI Emoji" font-size="10.24224405531302px" fill="#000" text-anchor="start" style="white-space: pre;" direction="ltr" dominant-baseline="text-before-edge">end_time</text></g><g transform="translate(485.9138487214318 158.70153292065834) rotate(0 38.714927673339844 5.889290331805)"><text x="0" y="0" font-family="Helvetica, Segoe UI Emoji" font-size="10.24224405531302px" fill="#000" text-anchor="start" style="white-space: pre;" direction="ltr" dominant-baseline="text-before-edge">destination_table</text></g><g stroke-linecap="round" transform="translate(353.10984458819405 82.84047730884777) rotate(0 11.814494708631216 11.866974382271906)"><path d="M5.91 0 L17.72 0 L22.15 1.48 L23.63 5.91 L23.63 17.83 L22.15 22.26 L17.72 23.73 L5.91 23.73 L1.48 22.26 L0 17.83 L0.37 3.32 L1.48 1.48 L5.91 0" stroke="none" stroke-width="0" fill="#f2f2f2"></path><path d="M5.91 0 M5.91 0 C10.56 0, 15.2 0, 17.72 0 M5.91 0 C8.95 0, 11.99 0, 17.72 0 M17.72 0 C21.66 0, 23.63 1.97, 23.63 5.91 M17.72 0 C21.66 0, 23.63 1.97, 23.63 5.91 M23.63 5.91 C23.63 8.41, 23.63 10.9, 23.63 17.83 M23.63 5.91 C23.63 10.27, 23.63 14.64, 23.63 17.83 M23.63 17.83 C23.63 21.76, 21.66 23.73, 17.72 23.73 M23.63 17.83 C23.63 21.76, 21.66 23.73, 17.72 23.73 M17.72 23.73 C13.28 23.73, 8.84 23.73, 5.91 23.73 M17.72 23.73 C13.76 23.73, 9.81 23.73, 5.91 23.73 M5.91 23.73 C1.97 23.73, 0 21.76, 0 17.83 M5.91 23.73 C1.97 23.73, 0 21.76, 0 17.83 M0 17.83 C0 14.34, 0 10.84, 0 5.91 M0 17.83 C0 13.73, 0 9.63, 0 5.91 M0 5.91 C0 1.97, 1.97 0, 5.91 0 M0 5.91 C0 1.97, 1.97 0, 5.91 0" stroke="#000" stroke-width="1" fill="none"></path></g><g stroke-linecap="round" transform="translate(359.46579144299915 88.94135985086973) rotate(0 4.059674032544876 4.059674032544876)"><path d="M4.28 0.99 C5.3 1.19, 7.34 1.77, 7.92 2.11 C8.49 2.45, 7.76 2.2, 7.75 3.03 C7.73 3.87, 8.47 6.22, 7.84 7.11 C7.22 8, 5.1 8.4, 3.99 8.38 C2.87 8.37, 1.87 7.5, 1.14 7.02 C0.4 6.54, -0.23 6.1, -0.43 5.47 C-0.63 4.84, -0.39 4.1, -0.07 3.22 C0.25 2.34, 0.82 0.56, 1.49 0.18 C2.16 -0.2, 3.28 0.84, 3.95 0.95 C4.62 1.07, 5.49 0.8, 5.49 0.89 M4.42 1.08 C5.55 1.18, 7.92 1.65, 8.7 2.19 C9.48 2.73, 9.69 3.45, 9.09 4.31 C8.5 5.16, 6.18 6.89, 5.12 7.32 C4.05 7.74, 3.29 7.03, 2.71 6.86 C2.13 6.69, 2.23 6.46, 1.63 6.28 C1.04 6.1, -0.79 6.56, -0.86 5.81 C-0.93 5.05, 0.65 2.89, 1.23 1.77 C1.8 0.64, 2.03 -0.82, 2.58 -0.96 C3.13 -1.1, 4 0.95, 4.54 0.94 C5.07 0.93, 5.8 -1.09, 5.78 -1" stroke="#000000" stroke-width="1" fill="none"></path></g><g stroke-linecap="round"><g transform="translate(366.01469617251576 95.43780439932016) rotate(0 2.1914124223071383 1.929005786581115)"><path d="M-0.2 0.01 C1.22 2.01, 3.44 3.33, 4.21 3.74 M0.11 -0.31 C1.43 1.37, 3.19 3.05, 4.58 4.17" stroke="#000000" stroke-width="1" fill="none"></path></g></g><mask></mask><g stroke-linecap="round"><g transform="translate(346.155338459336 27.746449755181175) rotate(0 4.702431246943547 6.564480396181921)"><path d="M0 0 C2.29 0, 4.57 0, 7.05 0 M0 0 C1.97 0, 3.94 0, 7.05 0 M7.05 0 C7.63 0.64, 8.2 1.28, 9.4 2.63 M7.05 0 C7.81 0.84, 8.56 1.68, 9.4 2.63 M9.4 2.63 C9.4 5.36, 9.4 8.09, 9.4 13.13 M9.4 2.63 C9.4 6.12, 9.4 9.62, 9.4 13.13 M9.4 13.13 C6.88 13.13, 4.35 13.13, 0 13.13 M9.4 13.13 C7.46 13.13, 5.51 13.13, 0 13.13 M0 13.13 C0 9.98, 0 6.84, 0 0 M0 13.13 C0 8.25, 0 3.37, 0 0 M0 0 C2.73 0, 5.47 0, 7.05 0 M0 0 C1.57 0, 3.15 0, 7.05 0 M7.05 0 C7.05 0.92, 7.05 1.84, 7.05 2.63 M7.05 0 C7.05 0.92, 7.05 1.83, 7.05 2.63 M7.05 2.63 C7.89 2.63, 8.74 2.63, 9.4 2.63 M7.05 2.63 C7.88 2.63, 8.71 2.63, 9.4 2.63" stroke="#000000" stroke-width="1" fill="none"></path></g></g><mask></mask><g stroke-linecap="round"><g transform="translate(214.7473861324089 34.149790896005584) rotate(273.0448175152741 3.857424293885881 0.30904297786599955)"><path d="M0.43 -0.77 C1.36 -0.89, 5.35 -0.76, 6.4 -0.71 M-0.8 1.44 C0.41 1.45, 6.85 0.57, 8.52 0.42" stroke="#000000" stroke-width="1" fill="none"></path></g></g><mask></mask><g stroke-linecap="round"><g transform="translate(220.16114042418025 30.825895132328128) rotate(186.66576921600108 -2.106593872514747 1.0252265539870677)"><path d="M-0.19 -0.2 C-0.81 0.76, -1.19 1.47, -2.21 2.04 M-0.06 0.02 C-0.65 0.59, -1.14 1.32, -2.01 2.25 M-2.16 1.97 C-2.61 1.35, -2.9 0.99, -4.15 0.07 M-2.03 2.07 C-2.57 1.47, -3.01 0.93, -3.77 0.11" stroke="#000000" stroke-width="1" fill="none"></path></g></g><mask></mask><g stroke-linecap="round" transform="translate(211.1174423031541 27.640853159795483) rotate(3.0448175152740338 6.846795093927778 6.846795093927767)"><path d="M6.87 -0.22 C8.19 -0.19, 10.71 1.06, 11.95 2.11 C13.18 3.16, 14.19 4.64, 14.27 6.08 C14.35 7.51, 13.49 9.39, 12.42 10.71 C11.35 12.04, 9.29 13.69, 7.84 14.01 C6.39 14.33, 4.79 13.43, 3.72 12.65 C2.65 11.86, 1.93 10.54, 1.44 9.31 C0.95 8.09, 0.61 6.77, 0.78 5.32 C0.95 3.87, 1.28 1.57, 2.46 0.59 C3.65 -0.38, 6.75 -0.5, 7.87 -0.51 C8.99 -0.52, 9.32 0.26, 9.2 0.52 M5.6 -0.46 C6.68 -0.66, 8.96 -0.15, 10.4 0.8 C11.84 1.74, 13.57 3.53, 14.26 5.2 C14.94 6.87, 15.03 9.41, 14.5 10.8 C13.97 12.18, 12.73 13.14, 11.1 13.51 C9.46 13.88, 6.54 13.71, 4.68 13.02 C2.81 12.33, 0.76 10.71, -0.07 9.37 C-0.9 8.02, -0.69 6.05, -0.3 4.94 C0.1 3.84, 1.37 3.35, 2.31 2.72 C3.26 2.1, 4.78 1.61, 5.37 1.18 C5.96 0.75, 5.82 0.29, 5.87 0.13" stroke="#000000" stroke-width="1" fill="none"></path></g><g stroke-linecap="round" transform="translate(23.29627769068253 85.44459718138114) rotate(0 55.73723681256402 9.131606093351024)"><path d="M4.57 0 L106.91 0 L110.33 1.14 L111.19 2.57 L111.47 13.7 L110.33 17.12 L106.91 18.26 L4.57 18.26 L1.14 17.12 L0 13.7 L0.29 2.57 L1.14 1.14 L4.57 0" stroke="none" stroke-width="0" fill="#ffffff"></path><path d="M4.57 0 M4.57 0 C27.32 0, 50.07 0, 106.91 0 M4.57 0 C41.12 0, 77.67 0, 106.91 0 M106.91 0 C109.95 0, 111.47 1.52, 111.47 4.57 M106.91 0 C109.95 0, 111.47 1.52, 111.47 4.57 M111.47 4.57 C111.47 8.17, 111.47 11.77, 111.47 13.7 M111.47 4.57 C111.47 6.59, 111.47 8.61, 111.47 13.7 M111.47 13.7 C111.47 16.74, 109.95 18.26, 106.91 18.26 M111.47 13.7 C111.47 16.74, 109.95 18.26, 106.91 18.26 M106.91 18.26 C80.19 18.26, 53.47 18.26, 4.57 18.26 M106.91 18.26 C76.14 18.26, 45.38 18.26, 4.57 18.26 M4.57 18.26 C1.52 18.26, 0 16.74, 0 13.7 M4.57 18.26 C1.52 18.26, 0 16.74, 0 13.7 M0 13.7 C0 10.4, 0 7.1, 0 4.57 M0 13.7 C0 10.51, 0 7.33, 0 4.57 M0 4.57 C0 1.52, 1.52 0, 4.57 0 M0 4.57 C0 1.52, 1.52 0, 4.57 0" stroke="#ced4da" stroke-width="1" fill="none"></path></g><g transform="translate(27.153100020643166 87.2048260875381) rotate(0 42.779823303222656 6.704528760239555)"><text x="0" y="0" font-family="Helvetica, Segoe UI Emoji" font-size="11.660050017807846px" fill="#000" text-anchor="start" style="white-space: pre;" direction="ltr" dominant-baseline="text-before-edge">transaction table</text></g><g stroke-linecap="round" transform="translate(119.30859311165177 89.09144652313694) rotate(0 5.36857959950601 5.368583836649691)"><path d="M10.74 5.37 C10.74 5.68, 10.71 5.99, 10.66 6.3 C10.6 6.61, 10.52 6.91, 10.41 7.2 C10.31 7.5, 10.17 7.78, 10.02 8.05 C9.86 8.32, 9.68 8.58, 9.48 8.82 C9.28 9.06, 9.06 9.28, 8.82 9.48 C8.58 9.68, 8.32 9.86, 8.05 10.02 C7.78 10.17, 7.5 10.31, 7.2 10.41 C6.91 10.52, 6.61 10.6, 6.3 10.66 C5.99 10.71, 5.68 10.74, 5.37 10.74 C5.06 10.74, 4.74 10.71, 4.44 10.66 C4.13 10.6, 3.82 10.52, 3.53 10.41 C3.24 10.31, 2.95 10.17, 2.68 10.02 C2.42 9.86, 2.16 9.68, 1.92 9.48 C1.68 9.28, 1.46 9.06, 1.26 8.82 C1.06 8.58, 0.87 8.32, 0.72 8.05 C0.56 7.78, 0.43 7.5, 0.32 7.2 C0.22 6.91, 0.14 6.61, 0.08 6.3 C0.03 5.99, 0 5.68, 0 5.37 C0 5.06, 0.03 4.74, 0.08 4.44 C0.14 4.13, 0.22 3.82, 0.32 3.53 C0.43 3.24, 0.56 2.95, 0.72 2.68 C0.87 2.42, 1.06 2.16, 1.26 1.92 C1.46 1.68, 1.68 1.46, 1.92 1.26 C2.16 1.06, 2.42 0.87, 2.68 0.72 C2.95 0.56, 3.24 0.43, 3.53 0.32 C3.82 0.22, 4.13 0.14, 4.44 0.08 C4.74 0.03, 5.06 0, 5.37 0 C5.68 0, 5.99 0.03, 6.3 0.08 C6.61 0.14, 6.91 0.22, 7.2 0.32 C7.5 0.43, 7.78 0.56, 8.05 0.72 C8.32 0.87, 8.58 1.06, 8.82 1.26 C9.06 1.46, 9.28 1.68, 9.48 1.92 C9.68 2.16, 9.86 2.42, 10.02 2.68 C10.17 2.95, 10.31 3.24, 10.41 3.53 C10.52 3.82, 10.6 4.13, 10.66 4.44 C10.71 4.74, 10.72 5.21, 10.74 5.37 C10.75 5.52, 10.75 5.21, 10.74 5.37" stroke="none" stroke-width="0" fill="#ffffff"></path><path d="M10.74 5.37 C10.74 5.68, 10.71 5.99, 10.66 6.3 C10.6 6.61, 10.52 6.91, 10.41 7.2 C10.31 7.5, 10.17 7.78, 10.02 8.05 C9.86 8.32, 9.68 8.58, 9.48 8.82 C9.28 9.06, 9.06 9.28, 8.82 9.48 C8.58 9.68, 8.32 9.86, 8.05 10.02 C7.78 10.17, 7.5 10.31, 7.2 10.41 C6.91 10.52, 6.61 10.6, 6.3 10.66 C5.99 10.71, 5.68 10.74, 5.37 10.74 C5.06 10.74, 4.74 10.71, 4.44 10.66 C4.13 10.6, 3.82 10.52, 3.53 10.41 C3.24 10.31, 2.95 10.17, 2.68 10.02 C2.42 9.86, 2.16 9.68, 1.92 9.48 C1.68 9.28, 1.46 9.06, 1.26 8.82 C1.06 8.58, 0.87 8.32, 0.72 8.05 C0.56 7.78, 0.43 7.5, 0.32 7.2 C0.22 6.91, 0.14 6.61, 0.08 6.3 C0.03 5.99, 0 5.68, 0 5.37 C0 5.06, 0.03 4.74, 0.08 4.44 C0.14 4.13, 0.22 3.82, 0.32 3.53 C0.43 3.24, 0.56 2.95, 0.72 2.68 C0.87 2.42, 1.06 2.16, 1.26 1.92 C1.46 1.68, 1.68 1.46, 1.92 1.26 C2.16 1.06, 2.42 0.87, 2.68 0.72 C2.95 0.56, 3.24 0.43, 3.53 0.32 C3.82 0.22, 4.13 0.14, 4.44 0.08 C4.74 0.03, 5.06 0, 5.37 0 C5.68 0, 5.99 0.03, 6.3 0.08 C6.61 0.14, 6.91 0.22, 7.2 0.32 C7.5 0.43, 7.78 0.56, 8.05 0.72 C8.32 0.87, 8.58 1.06, 8.82 1.26 C9.06 1.46, 9.28 1.68, 9.48 1.92 C9.68 2.16, 9.86 2.42, 10.02 2.68 C10.17 2.95, 10.31 3.24, 10.41 3.53 C10.52 3.82, 10.6 4.13, 10.66 4.44 C10.71 4.74, 10.72 5.21, 10.74 5.37 C10.75 5.52, 10.75 5.21, 10.74 5.37" stroke="#1e1e1e" stroke-width="1" fill="none"></path></g><g stroke-linecap="round"><g transform="translate(122.36019072575696 96.71879589650462) rotate(0 2.057134455583368 -2.139035146412539)"><path d="M0.07 -0.25 C0.9 -1.5, 1.93 -2.62, 3.73 -3.91 M-0.03 0.17 C1.74 -1.59, 3.43 -3.04, 4.14 -4.45" stroke="#000000" stroke-width="1" fill="none"></path></g></g><mask></mask><g stroke-linecap="round"><g transform="translate(126.67465262263782 96.71879589650462) rotate(0 -2.102075439880183 -2.1513934731169684)"><path d="M-0.15 -0.45 C-1.26 -1.58, -2.71 -1.74, -3.84 -3.8 M0.14 0.05 C-1.25 -1.19, -3.07 -3.02, -4.35 -4.35" stroke="#000000" stroke-width="1" fill="none"></path></g></g><mask></mask><g stroke-linecap="round" transform="translate(143.8550845471928 85.97781031275076) rotate(0 44.49684915757297 9.131606093351024)"><path d="M4.57 0 L86.43 0.29 L88.71 2.57 L88.71 15.69 L87.85 17.12 L84.43 18.26 L2.57 17.98 L0.29 15.69 L0 4.57 L1.14 1.14 L4.57 0" stroke="none" stroke-width="0" fill="#ffffff"></path><path d="M4.57 0 M4.57 0 C33.45 0, 62.34 0, 84.43 0 M4.57 0 C29.71 0, 54.84 0, 84.43 0 M84.43 0 C87.47 0, 88.99 1.52, 88.99 4.57 M84.43 0 C87.47 0, 88.99 1.52, 88.99 4.57 M88.99 4.57 C88.99 6.45, 88.99 8.34, 88.99 13.7 M88.99 4.57 C88.99 7.62, 88.99 10.68, 88.99 13.7 M88.99 13.7 C88.99 16.74, 87.47 18.26, 84.43 18.26 M88.99 13.7 C88.99 16.74, 87.47 18.26, 84.43 18.26 M84.43 18.26 C57.53 18.26, 30.63 18.26, 4.57 18.26 M84.43 18.26 C65.04 18.26, 45.66 18.26, 4.57 18.26 M4.57 18.26 C1.52 18.26, 0 16.74, 0 13.7 M4.57 18.26 C1.52 18.26, 0 16.74, 0 13.7 M0 13.7 C0 11.4, 0 9.11, 0 4.57 M0 13.7 C0 11.11, 0 8.53, 0 4.57 M0 4.57 C0 1.52, 1.52 0, 4.57 0 M0 4.57 C0 1.52, 1.52 0, 4.57 0" stroke="#ced4da" stroke-width="1" fill="none"></path></g><g stroke-linecap="round" transform="translate(239.83436773626164 85.49737065885915) rotate(0 46.14937814469957 9.131606093351024)"><path d="M4.57 0 L89.73 0.29 L92.01 2.57 L92.01 15.69 L91.16 17.12 L87.73 18.26 L2.57 17.98 L0.29 15.69 L0 4.57 L1.14 1.14 L4.57 0" stroke="none" stroke-width="0" fill="#ffffff"></path><path d="M4.57 0 M4.57 0 C26.56 0, 48.55 0, 87.73 0 M4.57 0 C25.64 0, 46.72 0, 87.73 0 M87.73 0 C90.78 0, 92.3 1.52, 92.3 4.57 M87.73 0 C90.78 0, 92.3 1.52, 92.3 4.57 M92.3 4.57 C92.3 7.79, 92.3 11.02, 92.3 13.7 M92.3 4.57 C92.3 7.43, 92.3 10.29, 92.3 13.7 M92.3 13.7 C92.3 16.74, 90.78 18.26, 87.73 18.26 M92.3 13.7 C92.3 16.74, 90.78 18.26, 87.73 18.26 M87.73 18.26 C60.54 18.26, 33.35 18.26, 4.57 18.26 M87.73 18.26 C62.37 18.26, 37.01 18.26, 4.57 18.26 M4.57 18.26 C1.52 18.26, 0 16.74, 0 13.7 M4.57 18.26 C1.52 18.26, 0 16.74, 0 13.7 M0 13.7 C0 11.01, 0 8.33, 0 4.57 M0 13.7 C0 10.44, 0 7.19, 0 4.57 M0 4.57 C0 1.52, 1.52 0, 4.57 0 M0 4.57 C0 1.52, 1.52 0, 4.57 0" stroke="#ced4da" stroke-width="1" fill="none"></path></g><g transform="translate(147.3699176654123 87.62403982795695) rotate(0 34.02345275878906 6.704528760239555)"><text x="0" y="0" font-family="Helvetica, Segoe UI Emoji" font-size="11.660050017807846px" fill="#000" text-anchor="start" style="white-space: pre;" direction="ltr" dominant-baseline="text-before-edge">reviews table</text></g><g stroke-linecap="round" transform="translate(218.29342156568998 90.06301019779903) rotate(0 5.085981875619087 5.085985889722906)"><path d="M10.17 5.09 C10.17 5.38, 10.15 5.68, 10.09 5.97 C10.04 6.26, 9.97 6.55, 9.87 6.83 C9.76 7.1, 9.64 7.37, 9.49 7.63 C9.34 7.88, 9.17 8.13, 8.98 8.36 C8.79 8.58, 8.58 8.79, 8.36 8.98 C8.13 9.17, 7.88 9.34, 7.63 9.49 C7.37 9.64, 7.1 9.76, 6.83 9.87 C6.55 9.97, 6.26 10.04, 5.97 10.09 C5.68 10.15, 5.38 10.17, 5.09 10.17 C4.79 10.17, 4.49 10.15, 4.2 10.09 C3.91 10.04, 3.62 9.97, 3.35 9.87 C3.07 9.76, 2.8 9.64, 2.54 9.49 C2.29 9.34, 2.04 9.17, 1.82 8.98 C1.59 8.79, 1.38 8.58, 1.19 8.36 C1 8.13, 0.83 7.88, 0.68 7.63 C0.53 7.37, 0.41 7.1, 0.31 6.83 C0.21 6.55, 0.13 6.26, 0.08 5.97 C0.03 5.68, 0 5.38, 0 5.09 C0 4.79, 0.03 4.49, 0.08 4.2 C0.13 3.91, 0.21 3.62, 0.31 3.35 C0.41 3.07, 0.53 2.8, 0.68 2.54 C0.83 2.29, 1 2.04, 1.19 1.82 C1.38 1.59, 1.59 1.38, 1.82 1.19 C2.04 1, 2.29 0.83, 2.54 0.68 C2.8 0.53, 3.07 0.41, 3.35 0.31 C3.62 0.21, 3.91 0.13, 4.2 0.08 C4.49 0.03, 4.79 0, 5.09 0 C5.38 0, 5.68 0.03, 5.97 0.08 C6.26 0.13, 6.55 0.21, 6.83 0.31 C7.1 0.41, 7.37 0.53, 7.63 0.68 C7.88 0.83, 8.13 1, 8.36 1.19 C8.58 1.38, 8.79 1.59, 8.98 1.82 C9.17 2.04, 9.34 2.29, 9.49 2.54 C9.64 2.8, 9.76 3.07, 9.87 3.35 C9.97 3.62, 10.04 3.91, 10.09 4.2 C10.15 4.49, 10.16 4.94, 10.17 5.09 C10.18 5.23, 10.18 4.94, 10.17 5.09" stroke="none" stroke-width="0" fill="#ffffff"></path><path d="M10.17 5.09 C10.17 5.38, 10.15 5.68, 10.09 5.97 C10.04 6.26, 9.97 6.55, 9.87 6.83 C9.76 7.1, 9.64 7.37, 9.49 7.63 C9.34 7.88, 9.17 8.13, 8.98 8.36 C8.79 8.58, 8.58 8.79, 8.36 8.98 C8.13 9.17, 7.88 9.34, 7.63 9.49 C7.37 9.64, 7.1 9.76, 6.83 9.87 C6.55 9.97, 6.26 10.04, 5.97 10.09 C5.68 10.15, 5.38 10.17, 5.09 10.17 C4.79 10.17, 4.49 10.15, 4.2 10.09 C3.91 10.04, 3.62 9.97, 3.35 9.87 C3.07 9.76, 2.8 9.64, 2.54 9.49 C2.29 9.34, 2.04 9.17, 1.82 8.98 C1.59 8.79, 1.38 8.58, 1.19 8.36 C1 8.13, 0.83 7.88, 0.68 7.63 C0.53 7.37, 0.41 7.1, 0.31 6.83 C0.21 6.55, 0.13 6.26, 0.08 5.97 C0.03 5.68, 0 5.38, 0 5.09 C0 4.79, 0.03 4.49, 0.08 4.2 C0.13 3.91, 0.21 3.62, 0.31 3.35 C0.41 3.07, 0.53 2.8, 0.68 2.54 C0.83 2.29, 1 2.04, 1.19 1.82 C1.38 1.59, 1.59 1.38, 1.82 1.19 C2.04 1, 2.29 0.83, 2.54 0.68 C2.8 0.53, 3.07 0.41, 3.35 0.31 C3.62 0.21, 3.91 0.13, 4.2 0.08 C4.49 0.03, 4.79 0, 5.09 0 C5.38 0, 5.68 0.03, 5.97 0.08 C6.26 0.13, 6.55 0.21, 6.83 0.31 C7.1 0.41, 7.37 0.53, 7.63 0.68 C7.88 0.83, 8.13 1, 8.36 1.19 C8.58 1.38, 8.79 1.59, 8.98 1.82 C9.17 2.04, 9.34 2.29, 9.49 2.54 C9.64 2.8, 9.76 3.07, 9.87 3.35 C9.97 3.62, 10.04 3.91, 10.09 4.2 C10.15 4.49, 10.16 4.94, 10.17 5.09 C10.18 5.23, 10.18 4.94, 10.17 5.09" stroke="#1e1e1e" stroke-width="1" fill="none"></path></g><g stroke-linecap="round"><g transform="translate(221.1843855291282 97.2888620181825) rotate(0 1.9056334870820315 -2.2927708992931457)"><path d="M-0.14 -0.26 C1.49 -0.6, 1.54 -2.46, 3.94 -3.51 M0.27 -0.28 C0.78 -1.1, 2.2 -2.03, 3.96 -4.33" stroke="#000000" stroke-width="1" fill="none"></path></g></g><mask></mask><g stroke-linecap="round"><g transform="translate(225.27173761246218 97.2888620181825) rotate(0 -1.9129362163343018 -1.8329565889516743)"><path d="M0.54 0.39 C-1.88 -2.03, -3.16 -2.47, -4.37 -4.01 M-0.24 -0.08 C-1.06 -1.19, -2.51 -2.62, -4 -4.06" stroke="#000000" stroke-width="1" fill="none"></path></g></g><mask></mask><g transform="translate(244.3473671030556 86.87596043352801) rotate(0 33.70747375488281 6.704528760239555)"><text x="0" y="0" font-family="Helvetica, Segoe UI Emoji" font-size="11.660050017807846px" fill="#000" text-anchor="start" style="white-space: pre;" direction="ltr" dominant-baseline="text-before-edge">product table</text></g><g stroke-linecap="round" transform="translate(317.7031227174892 88.69893983344559) rotate(0 5.085981875619083 5.085985889722906)"><path d="M10.17 5.09 C10.17 5.38, 10.15 5.68, 10.09 5.97 C10.04 6.26, 9.97 6.55, 9.87 6.83 C9.76 7.1, 9.64 7.37, 9.49 7.63 C9.34 7.88, 9.17 8.13, 8.98 8.36 C8.79 8.58, 8.58 8.79, 8.36 8.98 C8.13 9.17, 7.88 9.34, 7.63 9.49 C7.37 9.64, 7.1 9.76, 6.83 9.87 C6.55 9.97, 6.26 10.04, 5.97 10.09 C5.68 10.15, 5.38 10.17, 5.09 10.17 C4.79 10.17, 4.49 10.15, 4.2 10.09 C3.91 10.04, 3.62 9.97, 3.35 9.87 C3.07 9.76, 2.8 9.64, 2.54 9.49 C2.29 9.34, 2.04 9.17, 1.82 8.98 C1.59 8.79, 1.38 8.58, 1.19 8.36 C1 8.13, 0.83 7.88, 0.68 7.63 C0.53 7.37, 0.41 7.1, 0.31 6.83 C0.21 6.55, 0.13 6.26, 0.08 5.97 C0.03 5.68, 0 5.38, 0 5.09 C0 4.79, 0.03 4.49, 0.08 4.2 C0.13 3.91, 0.21 3.62, 0.31 3.35 C0.41 3.07, 0.53 2.8, 0.68 2.54 C0.83 2.29, 1 2.04, 1.19 1.82 C1.38 1.59, 1.59 1.38, 1.82 1.19 C2.04 1, 2.29 0.83, 2.54 0.68 C2.8 0.53, 3.07 0.41, 3.35 0.31 C3.62 0.21, 3.91 0.13, 4.2 0.08 C4.49 0.03, 4.79 0, 5.09 0 C5.38 0, 5.68 0.03, 5.97 0.08 C6.26 0.13, 6.55 0.21, 6.83 0.31 C7.1 0.41, 7.37 0.53, 7.63 0.68 C7.88 0.83, 8.13 1, 8.36 1.19 C8.58 1.38, 8.79 1.59, 8.98 1.82 C9.17 2.04, 9.34 2.29, 9.49 2.54 C9.64 2.8, 9.76 3.07, 9.87 3.35 C9.97 3.62, 10.04 3.91, 10.09 4.2 C10.15 4.49, 10.16 4.94, 10.17 5.09 C10.18 5.23, 10.18 4.94, 10.17 5.09" stroke="none" stroke-width="0" fill="#ffffff"></path><path d="M10.17 5.09 C10.17 5.38, 10.15 5.68, 10.09 5.97 C10.04 6.26, 9.97 6.55, 9.87 6.83 C9.76 7.1, 9.64 7.37, 9.49 7.63 C9.34 7.88, 9.17 8.13, 8.98 8.36 C8.79 8.58, 8.58 8.79, 8.36 8.98 C8.13 9.17, 7.88 9.34, 7.63 9.49 C7.37 9.64, 7.1 9.76, 6.83 9.87 C6.55 9.97, 6.26 10.04, 5.97 10.09 C5.68 10.15, 5.38 10.17, 5.09 10.17 C4.79 10.17, 4.49 10.15, 4.2 10.09 C3.91 10.04, 3.62 9.97, 3.35 9.87 C3.07 9.76, 2.8 9.64, 2.54 9.49 C2.29 9.34, 2.04 9.17, 1.82 8.98 C1.59 8.79, 1.38 8.58, 1.19 8.36 C1 8.13, 0.83 7.88, 0.68 7.63 C0.53 7.37, 0.41 7.1, 0.31 6.83 C0.21 6.55, 0.13 6.26, 0.08 5.97 C0.03 5.68, 0 5.38, 0 5.09 C0 4.79, 0.03 4.49, 0.08 4.2 C0.13 3.91, 0.21 3.62, 0.31 3.35 C0.41 3.07, 0.53 2.8, 0.68 2.54 C0.83 2.29, 1 2.04, 1.19 1.82 C1.38 1.59, 1.59 1.38, 1.82 1.19 C2.04 1, 2.29 0.83, 2.54 0.68 C2.8 0.53, 3.07 0.41, 3.35 0.31 C3.62 0.21, 3.91 0.13, 4.2 0.08 C4.49 0.03, 4.79 0, 5.09 0 C5.38 0, 5.68 0.03, 5.97 0.08 C6.26 0.13, 6.55 0.21, 6.83 0.31 C7.1 0.41, 7.37 0.53, 7.63 0.68 C7.88 0.83, 8.13 1, 8.36 1.19 C8.58 1.38, 8.79 1.59, 8.98 1.82 C9.17 2.04, 9.34 2.29, 9.49 2.54 C9.64 2.8, 9.76 3.07, 9.87 3.35 C9.97 3.62, 10.04 3.91, 10.09 4.2 C10.15 4.49, 10.16 4.94, 10.17 5.09 C10.18 5.23, 10.18 4.94, 10.17 5.09" stroke="#1e1e1e" stroke-width="1" fill="none"></path></g><g stroke-linecap="round"><g transform="translate(320.59408668092743 95.92479165382906) rotate(0 2.0696595737596226 -2.2814927947790693)"><path d="M-0.47 -0.48 C1.35 -1.33, 2.73 -2.3, 4.61 -4.37 M0.11 -0.19 C1.15 -0.93, 2.37 -2.13, 3.86 -4.28" stroke="#000000" stroke-width="1" fill="none"></path></g></g><mask></mask><g stroke-linecap="round"><g transform="translate(324.6814387642614 95.92479165382906) rotate(0 -1.9914987279655918 -1.8856943289214314)"><path d="M0.19 -0.19 C-0.92 -1.47, -2.24 -3.11, -4.17 -3.61 M0.01 0.25 C-1.31 -1.18, -2.98 -2.95, -4 -4.02" stroke="#000000" stroke-width="1" fill="none"></path></g></g><mask></mask></svg>