<svg version="1.1" xmlns="http://www.w3.org/2000/svg" viewBox="0 0 641.6898990595263 363.634479043679" width="1925.0696971785787" height="1090.903437131037">
  <!-- svg-source:excalidraw -->
  
  <defs>
    <style class="style-fonts">
      @font-face {
        font-family: "Virgil";
        src: url("https://excalidraw.com/Virgil.woff2");
      }
      @font-face {
        font-family: "Cascadia";
        src: url("https://excalidraw.com/Cascadia.woff2");
      }
    </style>
  </defs>
  <rect x="0" y="0" width="641.6898990595263" height="363.634479043679" fill="#ffffff"></rect><g stroke-opacity="0.5" fill-opacity="0.5" stroke-linecap="round" transform="translate(522.6352789785417 17.052910983623065) rotate(0 50.27732261694018 16.176281214222627)"><path d="M8.09 0 M8.09 0 C35.81 0, 63.53 0, 92.47 0 M8.09 0 C32.54 0, 57 0, 92.47 0 M92.47 0 C97.86 0, 100.55 2.7, 100.55 8.09 M92.47 0 C97.86 0, 100.55 2.7, 100.55 8.09 M100.55 8.09 C100.55 12.27, 100.55 16.45, 100.55 24.26 M100.55 8.09 C100.55 12.49, 100.55 16.89, 100.55 24.26 M100.55 24.26 C100.55 29.66, 97.86 32.35, 92.47 32.35 M100.55 24.26 C100.55 29.66, 97.86 32.35, 92.47 32.35 M92.47 32.35 C74.64 32.35, 56.81 32.35, 8.09 32.35 M92.47 32.35 C58.88 32.35, 25.29 32.35, 8.09 32.35 M8.09 32.35 C2.7 32.35, 0 29.66, 0 24.26 M8.09 32.35 C2.7 32.35, 0 29.66, 0 24.26 M0 24.26 C0 18.68, 0 13.1, 0 8.09 M0 24.26 C0 20.19, 0 16.11, 0 8.09 M0 8.09 C0 2.7, 2.7 0, 8.09 0 M0 8.09 C0 2.7, 2.7 0, 8.09 0" stroke="#000000" stroke-width="1" fill="none"></path></g><g stroke-linecap="round" transform="translate(562.8569835752223 23.29936404653347) rotate(0 10.929830993438827 9.99299466754411)"><path d="M21.86 9.99 C21.86 10.57, 21.8 11.16, 21.69 11.73 C21.58 12.3, 21.42 12.87, 21.2 13.41 C20.98 13.95, 20.71 14.49, 20.4 14.99 C20.08 15.49, 19.71 15.97, 19.3 16.42 C18.9 16.86, 18.44 17.28, 17.96 17.65 C17.47 18.02, 16.94 18.36, 16.39 18.65 C15.85 18.94, 15.26 19.19, 14.67 19.38 C14.07 19.58, 13.45 19.73, 12.83 19.83 C12.2 19.93, 11.56 19.99, 10.93 19.99 C10.3 19.99, 9.65 19.93, 9.03 19.83 C8.41 19.73, 7.79 19.58, 7.19 19.38 C6.6 19.19, 6.01 18.94, 5.46 18.65 C4.92 18.36, 4.39 18.02, 3.9 17.65 C3.42 17.28, 2.96 16.86, 2.56 16.42 C2.15 15.97, 1.78 15.49, 1.46 14.99 C1.15 14.49, 0.88 13.95, 0.66 13.41 C0.44 12.87, 0.28 12.3, 0.17 11.73 C0.06 11.16, 0 10.57, 0 9.99 C0 9.41, 0.06 8.83, 0.17 8.26 C0.28 7.69, 0.44 7.12, 0.66 6.58 C0.88 6.03, 1.15 5.5, 1.46 5 C1.78 4.5, 2.15 4.01, 2.56 3.57 C2.96 3.13, 3.42 2.71, 3.9 2.34 C4.39 1.97, 4.92 1.63, 5.46 1.34 C6.01 1.05, 6.6 0.8, 7.19 0.6 C7.79 0.4, 8.41 0.25, 9.03 0.15 C9.65 0.05, 10.3 0, 10.93 0 C11.56 0, 12.2 0.05, 12.83 0.15 C13.45 0.25, 14.07 0.4, 14.67 0.6 C15.26 0.8, 15.85 1.05, 16.39 1.34 C16.94 1.63, 17.47 1.97, 17.96 2.34 C18.44 2.71, 18.9 3.13, 19.3 3.57 C19.71 4.01, 20.08 4.5, 20.4 5 C20.71 5.5, 20.98 6.03, 21.2 6.58 C21.42 7.12, 21.58 7.69, 21.69 8.26 C21.8 8.83, 21.83 9.7, 21.86 9.99 C21.89 10.28, 21.89 9.7, 21.86 9.99" stroke="none" stroke-width="0" fill="#ced4da"></path><path d="M21.86 9.99 C21.86 10.57, 21.8 11.16, 21.69 11.73 C21.58 12.3, 21.42 12.87, 21.2 13.41 C20.98 13.95, 20.71 14.49, 20.4 14.99 C20.08 15.49, 19.71 15.97, 19.3 16.42 C18.9 16.86, 18.44 17.28, 17.96 17.65 C17.47 18.02, 16.94 18.36, 16.39 18.65 C15.85 18.94, 15.26 19.19, 14.67 19.38 C14.07 19.58, 13.45 19.73, 12.83 19.83 C12.2 19.93, 11.56 19.99, 10.93 19.99 C10.3 19.99, 9.65 19.93, 9.03 19.83 C8.41 19.73, 7.79 19.58, 7.19 19.38 C6.6 19.19, 6.01 18.94, 5.46 18.65 C4.92 18.36, 4.39 18.02, 3.9 17.65 C3.42 17.28, 2.96 16.86, 2.56 16.42 C2.15 15.97, 1.78 15.49, 1.46 14.99 C1.15 14.49, 0.88 13.95, 0.66 13.41 C0.44 12.87, 0.28 12.3, 0.17 11.73 C0.06 11.16, 0 10.57, 0 9.99 C0 9.41, 0.06 8.83, 0.17 8.26 C0.28 7.69, 0.44 7.12, 0.66 6.58 C0.88 6.03, 1.15 5.5, 1.46 5 C1.78 4.5, 2.15 4.01, 2.56 3.57 C2.96 3.13, 3.42 2.71, 3.9 2.34 C4.39 1.97, 4.92 1.63, 5.46 1.34 C6.01 1.05, 6.6 0.8, 7.19 0.6 C7.79 0.4, 8.41 0.25, 9.03 0.15 C9.65 0.05, 10.3 0, 10.93 0 C11.56 0, 12.2 0.05, 12.83 0.15 C13.45 0.25, 14.07 0.4, 14.67 0.6 C15.26 0.8, 15.85 1.05, 16.39 1.34 C16.94 1.63, 17.47 1.97, 17.96 2.34 C18.44 2.71, 18.9 3.13, 19.3 3.57 C19.71 4.01, 20.08 4.5, 20.4 5 C20.71 5.5, 20.98 6.03, 21.2 6.58 C21.42 7.12, 21.58 7.69, 21.69 8.26 C21.8 8.83, 21.83 9.7, 21.86 9.99 C21.89 10.28, 21.89 9.7, 21.86 9.99" stroke="#000000" stroke-width="2" fill="none"></path></g><g stroke-linecap="round" transform="translate(564.9449075443972 24.165209025191757) rotate(0 9.508042787598924 9.508042787598924)"><path d="M14.55 1.89 C16.33 2.6, 16.78 4.36, 17.3 6.07 C17.83 7.78, 18.16 10.36, 17.68 12.17 C17.2 13.97, 16.04 15.91, 14.4 16.89 C12.77 17.87, 9.91 18.14, 7.87 18.05 C5.83 17.97, 3.56 17.8, 2.16 16.38 C0.77 14.96, -0.44 11.57, -0.5 9.53 C-0.56 7.48, 0.4 5.69, 1.82 4.12 C3.24 2.54, 5.97 0.69, 8.02 0.1 C10.08 -0.49, 13.03 0.15, 14.16 0.57 C15.29 1, 14.75 2.35, 14.79 2.65 M12.27 0.58 C14.1 1.27, 16.46 3.68, 17.55 5.31 C18.65 6.94, 19.22 8.36, 18.83 10.35 C18.45 12.34, 16.79 15.74, 15.26 17.26 C13.73 18.79, 11.47 19.55, 9.68 19.5 C7.88 19.44, 5.87 17.97, 4.5 16.93 C3.12 15.89, 2.25 15.26, 1.43 13.25 C0.6 11.25, -0.96 7, -0.45 4.88 C0.06 2.77, 2.25 1.34, 4.49 0.56 C6.74 -0.21, 11.67 0.45, 13.02 0.22 C14.37 -0.01, 12.93 -0.9, 12.6 -0.79" stroke="none" stroke-width="0" fill="white"></path><path d="M5.78 0.74 C7.57 -0.23, 10.21 -0.89, 12.16 -0.2 C14.11 0.49, 16.44 3.01, 17.48 4.89 C18.53 6.77, 18.76 9.14, 18.42 11.09 C18.08 13.03, 16.86 15.3, 15.46 16.57 C14.06 17.84, 12.01 18.64, 10.04 18.69 C8.07 18.73, 5.43 18.02, 3.67 16.85 C1.9 15.69, -0.04 13.8, -0.57 11.7 C-1.1 9.6, -0.72 6, 0.51 4.25 C1.74 2.5, 5.72 1.92, 6.81 1.19 C7.9 0.47, 7.15 -0.15, 7.04 -0.1 M10.35 -1.38 C12.52 -1.59, 14.34 -0.25, 15.84 1.17 C17.35 2.59, 19.17 4.96, 19.37 7.15 C19.57 9.34, 18.42 12.44, 17.03 14.32 C15.64 16.21, 12.9 17.68, 11.05 18.45 C9.2 19.21, 7.38 19.75, 5.94 18.9 C4.5 18.05, 3.16 15.17, 2.39 13.35 C1.62 11.53, 1.09 9.98, 1.32 7.96 C1.56 5.94, 2.3 2.75, 3.8 1.22 C5.3 -0.31, 9.2 -1.15, 10.32 -1.21 C11.43 -1.26, 10.38 0.52, 10.5 0.86" stroke="#000000" stroke-width="1" fill="none"></path></g><g stroke-linecap="round" transform="translate(571.293560446049 27.702168373516997) rotate(0 3.372099233267363 3.372099233267363)"><path d="M3.57 0.67 C3.92 0.71, 4.81 1.26, 5.25 1.71 C5.69 2.17, 6.28 2.86, 6.22 3.4 C6.16 3.94, 5.44 4.38, 4.89 4.97 C4.34 5.56, 3.6 6.9, 2.91 6.95 C2.22 7.01, 1.22 5.76, 0.75 5.3 C0.29 4.84, 0.03 4.81, 0.12 4.19 C0.21 3.57, 1.03 2.37, 1.3 1.57 C1.56 0.76, 1.24 -0.5, 1.7 -0.66 C2.17 -0.81, 3.51 0.45, 4.09 0.65 C4.67 0.85, 5.01 0.46, 5.17 0.53 M2.99 1.4 C3.56 1.19, 4.39 0.2, 4.81 0.5 C5.22 0.8, 5.3 2.47, 5.47 3.21 C5.64 3.95, 5.81 4.51, 5.82 4.95 C5.83 5.38, 5.83 5.32, 5.52 5.82 C5.21 6.31, 4.97 8.05, 3.98 7.91 C2.98 7.76, 0.37 5.73, -0.44 4.93 C-1.26 4.13, -1.3 3.74, -0.91 3.12 C-0.53 2.5, 1.13 1.93, 1.86 1.21 C2.59 0.49, 3.41 -0.97, 3.45 -1.2 C3.48 -1.44, 2.38 -0.33, 2.08 -0.19" stroke="none" stroke-width="0" fill="black"></path><path d="M3.46 -0.69 C4.18 -0.59, 5.29 0.75, 5.76 1.44 C6.22 2.12, 6.28 2.75, 6.28 3.41 C6.27 4.07, 6.03 4.9, 5.71 5.39 C5.4 5.88, 5.02 6.22, 4.38 6.37 C3.74 6.52, 2.69 6.52, 1.87 6.29 C1.05 6.05, -0.14 5.74, -0.53 4.96 C-0.93 4.18, -0.9 2.25, -0.51 1.62 C-0.12 0.99, 1.08 1.55, 1.83 1.2 C2.57 0.86, 3.66 -0.33, 3.95 -0.47 C4.23 -0.61, 3.49 0.37, 3.52 0.37 M2.96 -1.22 C3.62 -1.28, 5.14 -1.02, 5.65 -0.46 C6.17 0.11, 6.13 1.35, 6.03 2.19 C5.93 3.03, 5.24 3.8, 5.04 4.59 C4.85 5.38, 5.06 6.7, 4.86 6.94 C4.67 7.17, 4.39 6.19, 3.88 6 C3.37 5.81, 2.42 6.4, 1.81 5.8 C1.19 5.19, 0.24 3.37, 0.18 2.38 C0.12 1.39, 0.84 0.15, 1.42 -0.13 C2 -0.41, 3.2 0.68, 3.66 0.69 C4.12 0.71, 4.38 0.05, 4.19 -0.02" stroke="#000000" stroke-width="1" fill="none"></path></g><g stroke-linecap="round"><g transform="translate(567.9641908169042 38.76816917322083) rotate(0 6.173337185068306 -0.022779652102201453)" fill-rule="evenodd"><path d="M-1.13 -1.63 L6.93 -3.31 L11.25 -0.73 L8.88 1.53 L5.05 1.63 L0.6 -1.33" stroke="none" stroke-width="0" fill="black" fill-rule="evenodd"></path><path d="M0.44 -0.48 C1.09 -0.83, 2.18 -2.37, 3.06 -2.91 C3.94 -3.44, 4.41 -3.72, 5.73 -3.69 C7.06 -3.66, 9.77 -3.26, 11 -2.73 C12.24 -2.2, 13.15 -1.44, 13.14 -0.5 C13.13 0.43, 11.85 2.2, 10.95 2.89 C10.05 3.57, 8.73 3.71, 7.75 3.63 C6.77 3.55, 5.85 2.82, 5.05 2.42 C4.26 2.01, 3.92 1.58, 2.96 1.2 C2 0.82, -0.35 0.38, -0.69 0.14 M-0.79 -1.78 C-0.21 -1.91, 0.71 -1.58, 2.2 -1.7 C3.69 -1.82, 6.63 -2.47, 8.16 -2.51 C9.69 -2.55, 10.8 -2.3, 11.38 -1.92 C11.97 -1.55, 11.53 -0.93, 11.67 -0.25 C11.82 0.42, 12.84 1.68, 12.25 2.13 C11.67 2.57, 9.56 2.5, 8.19 2.41 C6.82 2.33, 5.13 1.52, 4.03 1.62 C2.93 1.72, 2.3 3.33, 1.58 3.02 C0.86 2.71, -0.31 0.17, -0.28 -0.24" stroke="#000000" stroke-width="1" fill="none"></path></g></g><mask></mask><g stroke-linecap="round" transform="translate(10 10) rotate(0 310.84494952976314 171.8172395218395)"><path d="M0 0 C198.76 0, 397.51 0, 621.69 0 M0 0 C244.81 0, 489.63 0, 621.69 0 M621.69 0 C621.69 124.83, 621.69 249.67, 621.69 343.63 M621.69 0 C621.69 119.72, 621.69 239.43, 621.69 343.63 M621.69 343.63 C414 343.63, 206.31 343.63, 0 343.63 M621.69 343.63 C464.63 343.63, 307.58 343.63, 0 343.63 M0 343.63 C0 273.66, 0 203.69, 0 0 M0 343.63 C0 239.31, 0 134.99, 0 0" stroke="#000000" stroke-width="1" fill="none"></path></g><g stroke-linecap="round" transform="translate(40.46806703335238 82.48064734389334) rotate(0 32.33811564295115 11.229864994884394)"><path d="M5.61 0 M5.61 0 C25.44 0, 45.26 0, 59.06 0 M5.61 0 C20.19 0, 34.76 0, 59.06 0 M59.06 0 C62.8 0, 64.68 1.87, 64.68 5.61 M59.06 0 C62.8 0, 64.68 1.87, 64.68 5.61 M64.68 5.61 C64.68 9.54, 64.68 13.46, 64.68 16.84 M64.68 5.61 C64.68 9.81, 64.68 14, 64.68 16.84 M64.68 16.84 C64.68 20.59, 62.8 22.46, 59.06 22.46 M64.68 16.84 C64.68 20.59, 62.8 22.46, 59.06 22.46 M59.06 22.46 C42.4 22.46, 25.73 22.46, 5.61 22.46 M59.06 22.46 C39.21 22.46, 19.35 22.46, 5.61 22.46 M5.61 22.46 C1.87 22.46, 0 20.59, 0 16.84 M5.61 22.46 C1.87 22.46, 0 20.59, 0 16.84 M0 16.84 C0 12.66, 0 8.47, 0 5.61 M0 16.84 C0 14.54, 0 12.24, 0 5.61 M0 5.61 C0 1.87, 1.87 0, 5.61 0 M0 5.61 C0 1.87, 1.87 0, 5.61 0" stroke="#000000" stroke-width="1" fill="none"></path></g><g transform="translate(47.22449003471053 87.10637558593794) rotate(0 24.25804901123047 6.521708311386703)"><text x="0" y="0" font-family="Helvetica, Segoe UI Emoji" font-size="11.342101411107334px" fill="#000" text-anchor="start" style="white-space: pre;" direction="ltr" dominant-baseline="text-before-edge">Pick Files</text></g><g stroke-linecap="round" transform="translate(42.35233278895771 122.14013316840646) rotate(0 211.1213301272905 11.197013013028709)"><path d="M5.6 0 L416.64 0 L419.09 0.35 L421.89 3.15 L422.24 16.8 L420.84 20.99 L416.64 22.39 L5.6 22.39 L1.4 20.99 L0 16.8 L0.35 3.15 L3.15 0.35 L5.6 0" stroke="none" stroke-width="0" fill="#ced4da"></path><path d="M5.6 0 M5.6 0 C87.92 0, 170.23 0, 416.64 0 M5.6 0 C143.62 0, 281.64 0, 416.64 0 M416.64 0 C420.38 0, 422.24 1.87, 422.24 5.6 M416.64 0 C420.38 0, 422.24 1.87, 422.24 5.6 M422.24 5.6 C422.24 8.26, 422.24 10.92, 422.24 16.8 M422.24 5.6 C422.24 8.21, 422.24 10.81, 422.24 16.8 M422.24 16.8 C422.24 20.53, 420.38 22.39, 416.64 22.39 M422.24 16.8 C422.24 20.53, 420.38 22.39, 416.64 22.39 M416.64 22.39 C256.46 22.39, 96.27 22.39, 5.6 22.39 M416.64 22.39 C330.74 22.39, 244.83 22.39, 5.6 22.39 M5.6 22.39 C1.87 22.39, 0 20.53, 0 16.8 M5.6 22.39 C1.87 22.39, 0 20.53, 0 16.8 M0 16.8 C0 13.11, 0 9.42, 0 5.6 M0 16.8 C0 14.34, 0 11.89, 0 5.6 M0 5.6 C0 1.87, 1.87 0, 5.6 0 M0 5.6 C0 1.87, 1.87 0, 5.6 0" stroke="#000000" stroke-width="1" fill="none"></path></g><g stroke-linecap="round" transform="translate(118.18687533559421 82.2598364891079) rotate(0 39.27316187276642 11.449939771646086)"><path d="M5.72 0 L75.33 0.36 L77.12 1.43 L78.19 3.22 L78.19 19.68 L77.12 21.47 L72.82 22.9 L3.22 22.54 L1.43 21.47 L0.36 19.68 L0 5.72 L1.43 1.43 L5.72 0" stroke="none" stroke-width="0" fill="black"></path><path d="M5.72 0 M5.72 0 C24.97 0, 44.21 0, 72.82 0 M5.72 0 C28.84 0, 51.95 0, 72.82 0 M72.82 0 C76.64 0, 78.55 1.91, 78.55 5.72 M72.82 0 C76.64 0, 78.55 1.91, 78.55 5.72 M78.55 5.72 C78.55 9.75, 78.55 13.78, 78.55 17.17 M78.55 5.72 C78.55 8.76, 78.55 11.8, 78.55 17.17 M78.55 17.17 C78.55 20.99, 76.64 22.9, 72.82 22.9 M78.55 17.17 C78.55 20.99, 76.64 22.9, 72.82 22.9 M72.82 22.9 C50.06 22.9, 27.3 22.9, 5.72 22.9 M72.82 22.9 C53.85 22.9, 34.88 22.9, 5.72 22.9 M5.72 22.9 C1.91 22.9, 0 20.99, 0 17.17 M5.72 22.9 C1.91 22.9, 0 20.99, 0 17.17 M0 17.17 C0 13.05, 0 8.93, 0 5.72 M0 17.17 C0 13.69, 0 10.21, 0 5.72 M0 5.72 C0 1.91, 1.91 0, 5.72 0 M0 5.72 C0 1.91, 1.91 0, 5.72 0" stroke="#000000" stroke-width="2" fill="none"></path></g><g transform="translate(125.32461562718942 85.7449082955826) rotate(0 30.768112182617188 7.233532102997174)"><text x="0" y="0" font-family="Helvetica, Segoe UI Emoji" font-size="12.58005583129944px" fill="#ffffff" text-anchor="start" style="white-space: pre;" direction="ltr" dominant-baseline="text-before-edge">Edit Config</text></g><g transform="translate(67.4508822407613 126.51061074039274) rotate(0 31.6142578125 7.199684496887585)"><text x="0" y="0" font-family="Cascadia, Segoe UI Emoji" font-size="11.999474161479272px" fill="#000000" text-anchor="start" style="white-space: pre;" direction="ltr" dominant-baseline="text-before-edge">file name</text></g><g transform="translate(196.2274997088714 125.78210134731728) rotate(0 35.126953125 7.199684496887585)"><text x="0" y="0" font-family="Cascadia, Segoe UI Emoji" font-size="11.999474161479272px" fill="#000000" text-anchor="start" style="white-space: pre;" direction="ltr" dominant-baseline="text-before-edge">group name</text></g><g transform="translate(325.7573850626559 126.34306642733668) rotate(0 59.7158203125 7.199684496887585)"><text x="0" y="0" font-family="Cascadia, Segoe UI Emoji" font-size="11.999474161479272px" fill="#000000" text-anchor="start" style="white-space: pre;" direction="ltr" dominant-baseline="text-before-edge">destination table</text></g><g stroke-linecap="round"><g transform="translate(158.92430791295578 122.15699173677694) rotate(0 0 10.823092622744127)"><path d="M0 0 C0 3.61, 0 18.04, 0 21.65 M0 0 C0 3.61, 0 18.04, 0 21.65" stroke="#000000" stroke-width="1" fill="none"></path></g></g><mask></mask><g stroke-linecap="round"><g transform="translate(301.67523592819975 122.9884093121816) rotate(0 0 10.823092622744127)"><path d="M0 0 C0 3.61, 0 18.04, 0 21.65 M0 0 C0 3.61, 0 18.04, 0 21.65" stroke="#000000" stroke-width="1" fill="none"></path></g></g><mask></mask><g stroke-linecap="round" transform="translate(42.54330887901426 151.9970078775168) rotate(0 211.1213301272905 11.197013013028709)"><path d="M5.6 0 M5.6 0 C153.08 0, 300.56 0, 416.64 0 M5.6 0 C160.21 0, 314.83 0, 416.64 0 M416.64 0 C420.38 0, 422.24 1.87, 422.24 5.6 M416.64 0 C420.38 0, 422.24 1.87, 422.24 5.6 M422.24 5.6 C422.24 9.28, 422.24 12.95, 422.24 16.8 M422.24 5.6 C422.24 10.04, 422.24 14.47, 422.24 16.8 M422.24 16.8 C422.24 20.53, 420.38 22.39, 416.64 22.39 M422.24 16.8 C422.24 20.53, 420.38 22.39, 416.64 22.39 M416.64 22.39 C285.72 22.39, 154.79 22.39, 5.6 22.39 M416.64 22.39 C332.52 22.39, 248.39 22.39, 5.6 22.39 M5.6 22.39 C1.87 22.39, 0 20.53, 0 16.8 M5.6 22.39 C1.87 22.39, 0 20.53, 0 16.8 M0 16.8 C0 12.61, 0 8.43, 0 5.6 M0 16.8 C0 13.2, 0 9.6, 0 5.6 M0 5.6 C0 1.87, 1.87 0, 5.6 0 M0 5.6 C0 1.87, 1.87 0, 5.6 0" stroke="#000000" stroke-width="1" fill="none"></path></g><g stroke-linecap="round"><g transform="translate(159.11528400301222 152.0138664458873) rotate(0 0 10.823092622744127)"><path d="M0 0 C0 3.61, 0 18.04, 0 21.65 M0 0 C0 3.61, 0 18.04, 0 21.65" stroke="#000000" stroke-width="1" fill="none"></path></g></g><mask></mask><g stroke-linecap="round"><g transform="translate(301.8662120182563 151.84528402129195) rotate(0 0 10.823092622744127)"><path d="M0 0 C0 3.61, 0 18.04, 0 21.65 M0 0 C0 3.61, 0 18.04, 0 21.65" stroke="#000000" stroke-width="1" fill="none"></path></g></g><mask></mask><g stroke-linecap="round" transform="translate(470.13424285804103 122.58697814159837) rotate(0 38.096965330740204 10.148500745695571)"><path d="M5.07 0 L73.34 0.32 L75.88 2.85 L75.88 17.44 L74.93 19.03 L71.12 20.3 L2.85 19.98 L0.32 17.44 L0 5.07 L1.27 1.27 L5.07 0" stroke="none" stroke-width="0" fill="#868e96"></path><path d="M5.07 0 M5.07 0 C24.46 0, 43.84 0, 71.12 0 M5.07 0 C24.05 0, 43.03 0, 71.12 0 M71.12 0 C74.5 0, 76.19 1.69, 76.19 5.07 M71.12 0 C74.5 0, 76.19 1.69, 76.19 5.07 M76.19 5.07 C76.19 7.68, 76.19 10.28, 76.19 15.22 M76.19 5.07 C76.19 7.36, 76.19 9.65, 76.19 15.22 M76.19 15.22 C76.19 18.61, 74.5 20.3, 71.12 20.3 M76.19 15.22 C76.19 18.61, 74.5 20.3, 71.12 20.3 M71.12 20.3 C51.24 20.3, 31.36 20.3, 5.07 20.3 M71.12 20.3 C48.92 20.3, 26.72 20.3, 5.07 20.3 M5.07 20.3 C1.69 20.3, 0 18.61, 0 15.22 M5.07 20.3 C1.69 20.3, 0 18.61, 0 15.22 M0 15.22 C0 13, 0 10.78, 0 5.07 M0 15.22 C0 12.77, 0 10.31, 0 5.07 M0 5.07 C0 1.69, 1.69 0, 5.07 0 M0 5.07 C0 1.69, 1.69 0, 5.07 0" stroke="#000000" stroke-width="1" fill="none"></path></g><g transform="translate(478.0844116103169 126.74858032576185) rotate(0 30.205078125 6.190082445211829)"><text x="0" y="0" font-family="Cascadia, Segoe UI Emoji" font-size="10.316804075353065px" fill="#000000" text-anchor="start" style="white-space: pre;" direction="ltr" dominant-baseline="text-before-edge">Insert Row</text></g><g stroke-linecap="round" transform="translate(42.59180573477124 179.73159759897192) rotate(0 211.1213301272905 11.197013013028709)"><path d="M5.6 0 M5.6 0 C135.97 0, 266.35 0, 416.64 0 M5.6 0 C135.66 0, 265.71 0, 416.64 0 M416.64 0 C420.38 0, 422.24 1.87, 422.24 5.6 M416.64 0 C420.38 0, 422.24 1.87, 422.24 5.6 M422.24 5.6 C422.24 8.1, 422.24 10.6, 422.24 16.8 M422.24 5.6 C422.24 8.6, 422.24 11.61, 422.24 16.8 M422.24 16.8 C422.24 20.53, 420.38 22.39, 416.64 22.39 M422.24 16.8 C422.24 20.53, 420.38 22.39, 416.64 22.39 M416.64 22.39 C299.32 22.39, 182 22.39, 5.6 22.39 M416.64 22.39 C333.31 22.39, 249.97 22.39, 5.6 22.39 M5.6 22.39 C1.87 22.39, 0 20.53, 0 16.8 M5.6 22.39 C1.87 22.39, 0 20.53, 0 16.8 M0 16.8 C0 14.55, 0 12.3, 0 5.6 M0 16.8 C0 13.74, 0 10.69, 0 5.6 M0 5.6 C0 1.87, 1.87 0, 5.6 0 M0 5.6 C0 1.87, 1.87 0, 5.6 0" stroke="#000000" stroke-width="1" fill="none"></path></g><g stroke-linecap="round"><g transform="translate(159.1637808587692 179.7484561673424) rotate(0 0 10.823092622744127)"><path d="M0 0 C0 3.61, 0 18.04, 0 21.65 M0 0 C0 3.61, 0 18.04, 0 21.65" stroke="#000000" stroke-width="1" fill="none"></path></g></g><mask></mask><g stroke-linecap="round"><g transform="translate(301.9147088740132 179.57987374274683) rotate(0 0 10.823092622744127)"><path d="M0 0 C0 3.61, 0 18.04, 0 21.65 M0 0 C0 3.61, 0 18.04, 0 21.65" stroke="#000000" stroke-width="1" fill="none"></path></g></g><mask></mask><g stroke-opacity="0.5" fill-opacity="0.5" stroke-linecap="round" transform="translate(193.44837699070638 18.366436504329386) rotate(0 134.60067169154775 16.176281214222627)"><path d="M8.09 0 M8.09 0 C96.46 0, 184.84 0, 261.11 0 M8.09 0 C62.39 0, 116.69 0, 261.11 0 M261.11 0 C266.51 0, 269.2 2.7, 269.2 8.09 M261.11 0 C266.51 0, 269.2 2.7, 269.2 8.09 M269.2 8.09 C269.2 14.15, 269.2 20.21, 269.2 24.26 M269.2 8.09 C269.2 14.13, 269.2 20.18, 269.2 24.26 M269.2 24.26 C269.2 29.66, 266.51 32.35, 261.11 32.35 M269.2 24.26 C269.2 29.66, 266.51 32.35, 261.11 32.35 M261.11 32.35 C162.06 32.35, 63 32.35, 8.09 32.35 M261.11 32.35 C173.19 32.35, 85.27 32.35, 8.09 32.35 M8.09 32.35 C2.7 32.35, 0 29.66, 0 24.26 M8.09 32.35 C2.7 32.35, 0 29.66, 0 24.26 M0 24.26 C0 19.87, 0 15.48, 0 8.09 M0 24.26 C0 17.94, 0 11.62, 0 8.09 M0 8.09 C0 2.7, 2.7 0, 8.09 0 M0 8.09 C0 2.7, 2.7 0, 8.09 0" stroke="#000000" stroke-width="1" fill="none"></path></g><g stroke-linecap="round"><g stroke-opacity="0.5" fill-opacity="0.5" transform="translate(327.94992495683596 22.865726256586072) rotate(0 0 12.22815467555779)"><path d="M0 0 C0 4.08, 0 20.38, 0 24.46 M0 0 C0 4.08, 0 20.38, 0 24.46" stroke="#000000" stroke-width="1" fill="none"></path></g></g><mask></mask><g transform="translate(363.98356961158913 25.26198986044176) rotate(0 45.359375 9.199999999999989)"><text x="0" y="0" font-family="Helvetica, Segoe UI Emoji" font-size="16px" fill="#000" text-anchor="start" style="white-space: pre;" direction="ltr" dominant-baseline="text-before-edge">Show Tables</text></g><g stroke-linecap="round" transform="translate(196.88548984925546 21.378115315410696) rotate(0 63.301543221137564 13.01526246970758)"><path d="M6.51 0 L122.94 0.41 L124.98 1.63 L126.2 3.66 L126.2 22.37 L124.98 24.4 L122.94 25.62 L120.1 26.03 L3.66 25.62 L1.63 24.4 L0.41 22.37 L0 6.51 L0.41 3.66 L1.63 1.63 L3.66 0.41 L6.51 0" stroke="none" stroke-width="0" fill="#ced4da"></path><path d="M6.51 0 M6.51 0 C41.4 0, 76.28 0, 120.1 0 M6.51 0 C35.67 0, 64.84 0, 120.1 0 M120.1 0 C124.43 0, 126.6 2.17, 126.6 6.51 M120.1 0 C124.43 0, 126.6 2.17, 126.6 6.51 M126.6 6.51 C126.6 11.64, 126.6 16.78, 126.6 19.52 M126.6 6.51 C126.6 11.48, 126.6 16.45, 126.6 19.52 M126.6 19.52 C126.6 23.86, 124.43 26.03, 120.1 26.03 M126.6 19.52 C126.6 23.86, 124.43 26.03, 120.1 26.03 M120.1 26.03 C94.35 26.03, 68.61 26.03, 6.51 26.03 M120.1 26.03 C82.05 26.03, 44.01 26.03, 6.51 26.03 M6.51 26.03 C2.17 26.03, 0 23.86, 0 19.52 M6.51 26.03 C2.17 26.03, 0 23.86, 0 19.52 M0 19.52 C0 16.82, 0 14.11, 0 6.51 M0 19.52 C0 14.37, 0 9.21, 0 6.51 M0 6.51 C0 2.17, 2.17 0, 6.51 0 M0 6.51 C0 2.17, 2.17 0, 6.51 0" stroke="#ced4da" stroke-width="1" fill="none"></path></g><g transform="translate(227.192631822826 25.861968197376314) rotate(0 40.895301818847656 8.217361297868308)"><text x="0" y="0" font-family="Helvetica, Segoe UI Emoji" font-size="14.291063126727447px" fill="#000" text-anchor="start" style="white-space: pre;" direction="ltr" dominant-baseline="text-before-edge">Browse Files</text></g><g transform="translate(70.5277755729482 156.18860501742301) rotate(0 26.880264282226562 7.325383405215746)"><text x="0" y="0" font-family="Helvetica, Segoe UI Emoji" font-size="12.739797226462146px" fill="#000" text-anchor="start" style="white-space: pre;" direction="ltr" dominant-baseline="text-before-edge">Acidif.csv</text></g><g transform="translate(216.03299528098643 156.76832862853428) rotate(0 15.921806335449219 7.325383405215746)"><text x="0" y="0" font-family="Helvetica, Segoe UI Emoji" font-size="12.739797226462146px" fill="#000" text-anchor="start" style="white-space: pre;" direction="ltr" dominant-baseline="text-before-edge">Sales</text></g><g transform="translate(351.4369586266482 156.00339931246606) rotate(0 31.48310089111328 7.325383405215746)"><text x="0" y="0" font-family="Helvetica, Segoe UI Emoji" font-size="12.739797226462146px" fill="#000" text-anchor="start" style="white-space: pre;" direction="ltr" dominant-baseline="text-before-edge">STG_sales</text></g><g stroke-linecap="round" transform="translate(453.1590326108345 311.59048189617283) rotate(0 85.25506166371974 14.209176943953253)"><path d="M7.1 0 L163.41 0 L166.51 0.44 L168.73 1.78 L170.07 4 L170.51 21.31 L170.07 24.42 L168.73 26.64 L166.51 27.97 L163.41 28.42 L7.1 28.42 L4 27.97 L1.78 26.64 L0.44 24.42 L0 21.31 L0.44 4 L1.78 1.78 L4 0.44 L7.1 0" stroke="none" stroke-width="0" fill="#868e96"></path><path d="M7.1 0 M7.1 0 C40.17 0, 73.24 0, 163.41 0 M7.1 0 C46.86 0, 86.61 0, 163.41 0 M163.41 0 C168.14 0, 170.51 2.37, 170.51 7.1 M163.41 0 C168.14 0, 170.51 2.37, 170.51 7.1 M170.51 7.1 C170.51 11.88, 170.51 16.66, 170.51 21.31 M170.51 7.1 C170.51 12.59, 170.51 18.07, 170.51 21.31 M170.51 21.31 C170.51 26.05, 168.14 28.42, 163.41 28.42 M170.51 21.31 C170.51 26.05, 168.14 28.42, 163.41 28.42 M163.41 28.42 C117.9 28.42, 72.4 28.42, 7.1 28.42 M163.41 28.42 C115.31 28.42, 67.22 28.42, 7.1 28.42 M7.1 28.42 C2.37 28.42, 0 26.05, 0 21.31 M7.1 28.42 C2.37 28.42, 0 26.05, 0 21.31 M0 21.31 C0 17.65, 0 13.99, 0 7.1 M0 21.31 C0 16.36, 0 11.4, 0 7.1 M0 7.1 C0 2.37, 2.37 0, 7.1 0 M0 7.1 C0 2.37, 2.37 0, 7.1 0" stroke="#000" stroke-width="1" fill="none"></path></g><g transform="translate(476.664039517755 315.51763874251697) rotate(0 60.93818664550781 8.881703098102662)"><text x="0" y="0" font-family="Helvetica, Segoe UI Emoji" font-size="15.446440170613315px" fill="#ffffff" text-anchor="start" style="white-space: pre;" direction="ltr" dominant-baseline="text-before-edge">processing data...</text></g><g stroke-linecap="round" transform="translate(479.87811907848254 153.8061049243987) rotate(0 28.840212996068317 9.005094911960725)"><path d="M4.5 0 L55.15 0.28 L57.4 2.53 L57.4 15.48 L56.55 16.88 L53.18 18.01 L2.53 17.73 L0.28 15.48 L0 4.5 L1.13 1.13 L4.5 0" stroke="none" stroke-width="0" fill="#e9ecef"></path><path d="M4.5 0 M4.5 0 C14.49 0, 24.47 0, 53.18 0 M4.5 0 C20.43 0, 36.35 0, 53.18 0 M53.18 0 C56.18 0, 57.68 1.5, 57.68 4.5 M53.18 0 C56.18 0, 57.68 1.5, 57.68 4.5 M57.68 4.5 C57.68 6.68, 57.68 8.86, 57.68 13.51 M57.68 4.5 C57.68 7.59, 57.68 10.68, 57.68 13.51 M57.68 13.51 C57.68 16.51, 56.18 18.01, 53.18 18.01 M57.68 13.51 C57.68 16.51, 56.18 18.01, 53.18 18.01 M53.18 18.01 C36.34 18.01, 19.5 18.01, 4.5 18.01 M53.18 18.01 C42.91 18.01, 32.63 18.01, 4.5 18.01 M4.5 18.01 C1.5 18.01, 0 16.51, 0 13.51 M4.5 18.01 C1.5 18.01, 0 16.51, 0 13.51 M0 13.51 C0 9.98, 0 6.45, 0 4.5 M0 13.51 C0 11.19, 0 8.87, 0 4.5 M0 4.5 C0 1.5, 1.5 0, 4.5 0 M0 4.5 C0 1.5, 1.5 0, 4.5 0" stroke="#000000" stroke-width="1" fill="none"></path></g><g transform="translate(490.86571224921795 157.13807698914866) rotate(0 18.123046875 6.190082445211829)"><text x="0" y="0" font-family="Cascadia, Segoe UI Emoji" font-size="10.316804075353065px" fill="#000000" text-anchor="start" style="white-space: pre;" direction="ltr" dominant-baseline="text-before-edge">delete</text></g><g stroke-linecap="round" transform="translate(480.07881386358724 181.38782021068675) rotate(0 28.84021299606826 9.005094911960725)"><path d="M4.5 0 L55.15 0.28 L57.4 2.53 L57.4 15.48 L56.55 16.88 L53.18 18.01 L2.53 17.73 L0.28 15.48 L0 4.5 L1.13 1.13 L4.5 0" stroke="none" stroke-width="0" fill="#e9ecef"></path><path d="M4.5 0 M4.5 0 C17.15 0, 29.8 0, 53.18 0 M4.5 0 C18.72 0, 32.93 0, 53.18 0 M53.18 0 C56.18 0, 57.68 1.5, 57.68 4.5 M53.18 0 C56.18 0, 57.68 1.5, 57.68 4.5 M57.68 4.5 C57.68 7.24, 57.68 9.98, 57.68 13.51 M57.68 4.5 C57.68 7.19, 57.68 9.88, 57.68 13.51 M57.68 13.51 C57.68 16.51, 56.18 18.01, 53.18 18.01 M57.68 13.51 C57.68 16.51, 56.18 18.01, 53.18 18.01 M53.18 18.01 C40.47 18.01, 27.76 18.01, 4.5 18.01 M53.18 18.01 C37.67 18.01, 22.16 18.01, 4.5 18.01 M4.5 18.01 C1.5 18.01, 0 16.51, 0 13.51 M4.5 18.01 C1.5 18.01, 0 16.51, 0 13.51 M0 13.51 C0 10.4, 0 7.29, 0 4.5 M0 13.51 C0 11.04, 0 8.57, 0 4.5 M0 4.5 C0 1.5, 1.5 0, 4.5 0 M0 4.5 C0 1.5, 1.5 0, 4.5 0" stroke="#000000" stroke-width="1" fill="none"></path></g><g transform="translate(491.06640703432265 184.7197922754366) rotate(0 18.123046875 6.190082445211829)"><text x="0" y="0" font-family="Cascadia, Segoe UI Emoji" font-size="10.316804075353065px" fill="#000000" text-anchor="start" style="white-space: pre;" direction="ltr" dominant-baseline="text-before-edge">delete</text></g><g stroke-linecap="round"><g transform="translate(209.7126104150165 34.26589949626009) rotate(281.9207571390888 3.957277847896819 -0.3717763207446865)"><path d="M-0.33 0.99 C0.71 0.9, 4.68 0.42, 6.1 0.29 M1.69 0.46 C3.11 -0.09, 7.19 -1.9, 8.25 -1.72" stroke="#000000" stroke-width="1" fill="none"></path></g></g><mask></mask><g stroke-linecap="round"><g transform="translate(215.65809443172975 30.741631970748585) rotate(195.54170883981575 -1.8585799077075364 0.9781669978331138)"><path d="M0.05 0.24 C-0.47 0.59, -1.23 0.89, -1.67 2.07 M0.1 -0.09 C-0.52 0.63, -1.04 1.23, -1.74 1.91 M-1.71 1.88 C-2.49 1.79, -2.7 0.92, -3.49 -0.01 M-1.89 2.04 C-2.36 1.5, -3.01 0.96, -3.82 -0.12" stroke="#000000" stroke-width="1" fill="none"></path></g></g><mask></mask><g stroke-linecap="round" transform="translate(206.76432119696267 27.80796379411447) rotate(11.920757139088698 6.530654550949748 6.530654550949748)"><path d="M7.91 0.23 C9.33 0.29, 10.04 0.28, 10.97 1.37 C11.91 2.46, 13.48 5.27, 13.52 6.78 C13.55 8.29, 12 9.4, 11.18 10.43 C10.37 11.46, 9.74 12.47, 8.62 12.96 C7.5 13.45, 5.93 14.14, 4.46 13.38 C2.99 12.62, 0.47 9.79, -0.19 8.39 C-0.86 6.99, -0.16 6.3, 0.45 5 C1.06 3.7, 2.26 1.27, 3.47 0.61 C4.68 -0.06, 6.69 1.11, 7.7 1.02 C8.71 0.93, 9.28 0.09, 9.52 0.06 M5.57 0.28 C6.72 0.3, 9.63 0.74, 10.66 1.59 C11.68 2.44, 11.59 4.37, 11.73 5.37 C11.87 6.38, 11.98 6.6, 11.48 7.64 C10.99 8.68, 9.74 10.79, 8.78 11.6 C7.82 12.42, 6.83 12.92, 5.72 12.55 C4.62 12.19, 3.31 10.39, 2.14 9.43 C0.96 8.48, -1.49 8.18, -1.32 6.83 C-1.14 5.48, 2.22 2.39, 3.19 1.32 C4.16 0.25, 4.09 0.36, 4.49 0.39 C4.89 0.43, 5.61 1.57, 5.61 1.55" stroke="#000000" stroke-width="1" fill="none"></path></g><g stroke-linecap="round"><g transform="translate(344.9055616895191 27.618938123354837) rotate(0 5.654063445294753 6.089431665262225)"><path d="M0 0 C1.74 0, 3.49 0, 8.48 0 M0 0 C2.52 0, 5.04 0, 8.48 0 M8.48 0 C9.6 0.96, 10.72 1.93, 11.31 2.44 M8.48 0 C9.43 0.82, 10.39 1.64, 11.31 2.44 M11.31 2.44 C11.31 4.77, 11.31 7.11, 11.31 12.18 M11.31 2.44 C11.31 5.2, 11.31 7.96, 11.31 12.18 M11.31 12.18 C8.19 12.18, 5.06 12.18, 0 12.18 M11.31 12.18 C7.54 12.18, 3.77 12.18, 0 12.18 M0 12.18 C0 9.57, 0 6.95, 0 0 M0 12.18 C0 8.2, 0 4.23, 0 0 M0 0 C2.64 0, 5.27 0, 8.48 0 M0 0 C3.12 0, 6.24 0, 8.48 0 M8.48 0 C8.48 0.83, 8.48 1.67, 8.48 2.44 M8.48 0 C8.48 0.62, 8.48 1.24, 8.48 2.44 M8.48 2.44 C9.56 2.44, 10.64 2.44, 11.31 2.44 M8.48 2.44 C9.33 2.44, 10.18 2.44, 11.31 2.44" stroke="#000000" stroke-width="1" fill="none"></path></g></g><mask></mask></svg>